<mxfile host="app.diagrams.net" agent="Mozilla/5.0 (Windows NT 10.0; Win64; x64) AppleWebKit/537.36 (KHTML, like Gecko) Chrome/128.0.0.0 Safari/537.36" version="24.7.10">
  <diagram id="C5RBs43oDa-KdzZeNtuy" name="Page-1">
    <mxGraphModel dx="3857" dy="1243" grid="1" gridSize="10" guides="1" tooltips="1" connect="1" arrows="1" fold="1" page="1" pageScale="1" pageWidth="3300" pageHeight="2339" math="0" shadow="0">
      <root>
        <mxCell id="WIyWlLk6GJQsqaUBKTNV-0" />
        <mxCell id="WIyWlLk6GJQsqaUBKTNV-1" parent="WIyWlLk6GJQsqaUBKTNV-0" />
        <mxCell id="8l_3pa4N25uh9N-MK_aW-58" value="Goods" style="swimlane;fontStyle=2;align=center;verticalAlign=top;childLayout=stackLayout;horizontal=1;startSize=26;horizontalStack=0;resizeParent=1;resizeLast=0;collapsible=1;marginBottom=0;rounded=0;shadow=0;strokeWidth=1;fillColor=none;" parent="WIyWlLk6GJQsqaUBKTNV-1" vertex="1">
          <mxGeometry x="660" y="144" width="160" height="166" as="geometry">
            <mxRectangle x="230" y="140" width="160" height="26" as="alternateBounds" />
          </mxGeometry>
        </mxCell>
        <mxCell id="8l_3pa4N25uh9N-MK_aW-73" value="id" style="text;align=left;verticalAlign=top;spacingLeft=4;spacingRight=4;overflow=hidden;rotatable=0;points=[[0,0.5],[1,0.5]];portConstraint=eastwest;fillColor=#97D077;" parent="8l_3pa4N25uh9N-MK_aW-58" vertex="1">
          <mxGeometry y="26" width="160" height="26" as="geometry" />
        </mxCell>
        <mxCell id="8l_3pa4N25uh9N-MK_aW-59" value="order_id" style="text;align=left;verticalAlign=top;spacingLeft=4;spacingRight=4;overflow=hidden;rotatable=0;points=[[0,0.5],[1,0.5]];portConstraint=eastwest;fillColor=#99FFFF;" parent="8l_3pa4N25uh9N-MK_aW-58" vertex="1">
          <mxGeometry y="52" width="160" height="26" as="geometry" />
        </mxCell>
        <mxCell id="8l_3pa4N25uh9N-MK_aW-60" value="name" style="text;align=left;verticalAlign=top;spacingLeft=4;spacingRight=4;overflow=hidden;rotatable=0;points=[[0,0.5],[1,0.5]];portConstraint=eastwest;rounded=0;shadow=0;html=0;fillColor=#FFFF99;" parent="8l_3pa4N25uh9N-MK_aW-58" vertex="1">
          <mxGeometry y="78" width="160" height="26" as="geometry" />
        </mxCell>
        <mxCell id="8l_3pa4N25uh9N-MK_aW-244" value="cost_per_unit" style="text;align=left;verticalAlign=top;spacingLeft=4;spacingRight=4;overflow=hidden;rotatable=0;points=[[0,0.5],[1,0.5]];portConstraint=eastwest;rounded=0;shadow=0;html=0;fillColor=#FFFF99;" parent="8l_3pa4N25uh9N-MK_aW-58" vertex="1">
          <mxGeometry y="104" width="160" height="26" as="geometry" />
        </mxCell>
        <mxCell id="8l_3pa4N25uh9N-MK_aW-61" value="count" style="text;align=left;verticalAlign=top;spacingLeft=4;spacingRight=4;overflow=hidden;rotatable=0;points=[[0,0.5],[1,0.5]];portConstraint=eastwest;rounded=0;shadow=0;html=0;fillColor=#FFFF99;" parent="8l_3pa4N25uh9N-MK_aW-58" vertex="1">
          <mxGeometry y="130" width="160" height="26" as="geometry" />
        </mxCell>
        <mxCell id="8l_3pa4N25uh9N-MK_aW-65" value="Order" style="swimlane;fontStyle=2;align=center;verticalAlign=top;childLayout=stackLayout;horizontal=1;startSize=26;horizontalStack=0;resizeParent=1;resizeLast=0;collapsible=1;marginBottom=0;rounded=0;shadow=0;strokeWidth=1;fillColor=none;" parent="WIyWlLk6GJQsqaUBKTNV-1" vertex="1">
          <mxGeometry x="410" y="170" width="160" height="220" as="geometry">
            <mxRectangle x="230" y="140" width="160" height="26" as="alternateBounds" />
          </mxGeometry>
        </mxCell>
        <mxCell id="8l_3pa4N25uh9N-MK_aW-72" value="id" style="text;align=left;verticalAlign=top;spacingLeft=4;spacingRight=4;overflow=hidden;rotatable=0;points=[[0,0.5],[1,0.5]];portConstraint=eastwest;fillColor=#97D077;" parent="8l_3pa4N25uh9N-MK_aW-65" vertex="1">
          <mxGeometry y="26" width="160" height="26" as="geometry" />
        </mxCell>
        <mxCell id="DnuqKbJlAa81eqGboaNl-42" value="order_date" style="text;align=left;verticalAlign=top;spacingLeft=4;spacingRight=4;overflow=hidden;rotatable=0;points=[[0,0.5],[1,0.5]];portConstraint=eastwest;rounded=0;shadow=0;html=0;fillColor=#FFFF99;" parent="8l_3pa4N25uh9N-MK_aW-65" vertex="1">
          <mxGeometry y="52" width="160" height="26" as="geometry" />
        </mxCell>
        <mxCell id="DnuqKbJlAa81eqGboaNl-58" value="length" style="text;align=left;verticalAlign=top;spacingLeft=4;spacingRight=4;overflow=hidden;rotatable=0;points=[[0,0.5],[1,0.5]];portConstraint=eastwest;rounded=0;shadow=0;html=0;fillColor=#FFFF99;" parent="8l_3pa4N25uh9N-MK_aW-65" vertex="1">
          <mxGeometry y="78" width="160" height="26" as="geometry" />
        </mxCell>
        <mxCell id="DnuqKbJlAa81eqGboaNl-57" value="height" style="text;align=left;verticalAlign=top;spacingLeft=4;spacingRight=4;overflow=hidden;rotatable=0;points=[[0,0.5],[1,0.5]];portConstraint=eastwest;rounded=0;shadow=0;html=0;fillColor=#FFFF99;" parent="8l_3pa4N25uh9N-MK_aW-65" vertex="1">
          <mxGeometry y="104" width="160" height="26" as="geometry" />
        </mxCell>
        <mxCell id="DnuqKbJlAa81eqGboaNl-56" value="width" style="text;align=left;verticalAlign=top;spacingLeft=4;spacingRight=4;overflow=hidden;rotatable=0;points=[[0,0.5],[1,0.5]];portConstraint=eastwest;rounded=0;shadow=0;html=0;fillColor=#FFFF99;" parent="8l_3pa4N25uh9N-MK_aW-65" vertex="1">
          <mxGeometry y="130" width="160" height="26" as="geometry" />
        </mxCell>
        <mxCell id="8l_3pa4N25uh9N-MK_aW-239" value="weight" style="text;align=left;verticalAlign=top;spacingLeft=4;spacingRight=4;overflow=hidden;rotatable=0;points=[[0,0.5],[1,0.5]];portConstraint=eastwest;rounded=0;shadow=0;html=0;fillColor=#FFFF99;" parent="8l_3pa4N25uh9N-MK_aW-65" vertex="1">
          <mxGeometry y="156" width="160" height="26" as="geometry" />
        </mxCell>
        <mxCell id="8l_3pa4N25uh9N-MK_aW-68" value="currency_code" style="text;align=left;verticalAlign=top;spacingLeft=4;spacingRight=4;overflow=hidden;rotatable=0;points=[[0,0.5],[1,0.5]];portConstraint=eastwest;rounded=0;shadow=0;html=0;fillColor=#99FFFF;" parent="8l_3pa4N25uh9N-MK_aW-65" vertex="1">
          <mxGeometry y="182" width="160" height="26" as="geometry" />
        </mxCell>
        <mxCell id="8l_3pa4N25uh9N-MK_aW-83" value="Client" style="swimlane;fontStyle=2;align=center;verticalAlign=top;childLayout=stackLayout;horizontal=1;startSize=26;horizontalStack=0;resizeParent=1;resizeLast=0;collapsible=1;marginBottom=0;rounded=0;shadow=0;strokeWidth=1;fillColor=none;" parent="WIyWlLk6GJQsqaUBKTNV-1" vertex="1">
          <mxGeometry x="151" y="459" width="160" height="171" as="geometry">
            <mxRectangle x="230" y="140" width="160" height="26" as="alternateBounds" />
          </mxGeometry>
        </mxCell>
        <mxCell id="-JFV0slSvM1gxQrjLwDL-0" value="order_id" style="text;align=left;verticalAlign=top;spacingLeft=4;spacingRight=4;overflow=hidden;rotatable=0;points=[[0,0.5],[1,0.5]];portConstraint=eastwest;fillColor=#97D077;" parent="8l_3pa4N25uh9N-MK_aW-83" vertex="1">
          <mxGeometry y="26" width="160" height="26" as="geometry" />
        </mxCell>
        <mxCell id="8l_3pa4N25uh9N-MK_aW-84" value="client_type_code" style="text;align=left;verticalAlign=top;spacingLeft=4;spacingRight=4;overflow=hidden;rotatable=0;points=[[0,0.5],[1,0.5]];portConstraint=eastwest;fillColor=#97D077;" parent="8l_3pa4N25uh9N-MK_aW-83" vertex="1">
          <mxGeometry y="52" width="160" height="26" as="geometry" />
        </mxCell>
        <mxCell id="8l_3pa4N25uh9N-MK_aW-85" value="name" style="text;align=left;verticalAlign=top;spacingLeft=4;spacingRight=4;overflow=hidden;rotatable=0;points=[[0,0.5],[1,0.5]];portConstraint=eastwest;rounded=0;shadow=0;html=0;fillColor=#FFFF99;" parent="8l_3pa4N25uh9N-MK_aW-83" vertex="1">
          <mxGeometry y="78" width="160" height="26" as="geometry" />
        </mxCell>
        <mxCell id="8l_3pa4N25uh9N-MK_aW-86" value="type_id" style="text;align=left;verticalAlign=top;spacingLeft=4;spacingRight=4;overflow=hidden;rotatable=0;points=[[0,0.5],[1,0.5]];portConstraint=eastwest;rounded=0;shadow=0;html=0;fillColor=#99FFFF;" parent="8l_3pa4N25uh9N-MK_aW-83" vertex="1">
          <mxGeometry y="104" width="160" height="26" as="geometry" />
        </mxCell>
        <mxCell id="DnuqKbJlAa81eqGboaNl-196" value="client_address_id" style="text;align=left;verticalAlign=top;spacingLeft=4;spacingRight=4;overflow=hidden;rotatable=0;points=[[0,0.5],[1,0.5]];portConstraint=eastwest;rounded=0;shadow=0;html=0;fillColor=#99FFFF;" parent="8l_3pa4N25uh9N-MK_aW-83" vertex="1">
          <mxGeometry y="130" width="160" height="26" as="geometry" />
        </mxCell>
        <mxCell id="8l_3pa4N25uh9N-MK_aW-89" value="Warehouse" style="swimlane;fontStyle=2;align=center;verticalAlign=top;childLayout=stackLayout;horizontal=1;startSize=26;horizontalStack=0;resizeParent=1;resizeLast=0;collapsible=1;marginBottom=0;rounded=0;shadow=0;strokeWidth=1;fillColor=none;" parent="WIyWlLk6GJQsqaUBKTNV-1" vertex="1">
          <mxGeometry x="406" y="883.5" width="160" height="104" as="geometry">
            <mxRectangle x="230" y="140" width="160" height="26" as="alternateBounds" />
          </mxGeometry>
        </mxCell>
        <mxCell id="8l_3pa4N25uh9N-MK_aW-90" value="id" style="text;align=left;verticalAlign=top;spacingLeft=4;spacingRight=4;overflow=hidden;rotatable=0;points=[[0,0.5],[1,0.5]];portConstraint=eastwest;fillColor=#97D077;" parent="8l_3pa4N25uh9N-MK_aW-89" vertex="1">
          <mxGeometry y="26" width="160" height="26" as="geometry" />
        </mxCell>
        <mxCell id="8l_3pa4N25uh9N-MK_aW-91" value="name" style="text;align=left;verticalAlign=top;spacingLeft=4;spacingRight=4;overflow=hidden;rotatable=0;points=[[0,0.5],[1,0.5]];portConstraint=eastwest;rounded=0;shadow=0;html=0;fillColor=#FFFF99;" parent="8l_3pa4N25uh9N-MK_aW-89" vertex="1">
          <mxGeometry y="52" width="160" height="26" as="geometry" />
        </mxCell>
        <mxCell id="DnuqKbJlAa81eqGboaNl-238" value="system_name" style="text;align=left;verticalAlign=top;spacingLeft=4;spacingRight=4;overflow=hidden;rotatable=0;points=[[0,0.5],[1,0.5]];portConstraint=eastwest;rounded=0;shadow=0;html=0;fillColor=#FFFF99;" parent="8l_3pa4N25uh9N-MK_aW-89" vertex="1">
          <mxGeometry y="78" width="160" height="26" as="geometry" />
        </mxCell>
        <mxCell id="8l_3pa4N25uh9N-MK_aW-93" value="Warehouse_address" style="swimlane;fontStyle=2;align=center;verticalAlign=top;childLayout=stackLayout;horizontal=1;startSize=26;horizontalStack=0;resizeParent=1;resizeLast=0;collapsible=1;marginBottom=0;rounded=0;shadow=0;strokeWidth=1;fillColor=none;" parent="WIyWlLk6GJQsqaUBKTNV-1" vertex="1">
          <mxGeometry x="151" y="944" width="160" height="136" as="geometry">
            <mxRectangle x="230" y="140" width="160" height="26" as="alternateBounds" />
          </mxGeometry>
        </mxCell>
        <mxCell id="8l_3pa4N25uh9N-MK_aW-94" value="id" style="text;align=left;verticalAlign=top;spacingLeft=4;spacingRight=4;overflow=hidden;rotatable=0;points=[[0,0.5],[1,0.5]];portConstraint=eastwest;fillColor=#97D077;" parent="8l_3pa4N25uh9N-MK_aW-93" vertex="1">
          <mxGeometry y="26" width="160" height="26" as="geometry" />
        </mxCell>
        <mxCell id="8l_3pa4N25uh9N-MK_aW-96" value="city_id" style="text;align=left;verticalAlign=top;spacingLeft=4;spacingRight=4;overflow=hidden;rotatable=0;points=[[0,0.5],[1,0.5]];portConstraint=eastwest;rounded=0;shadow=0;html=0;fillColor=#99FFFF;" parent="8l_3pa4N25uh9N-MK_aW-93" vertex="1">
          <mxGeometry y="52" width="160" height="26" as="geometry" />
        </mxCell>
        <mxCell id="8l_3pa4N25uh9N-MK_aW-97" value="street" style="text;align=left;verticalAlign=top;spacingLeft=4;spacingRight=4;overflow=hidden;rotatable=0;points=[[0,0.5],[1,0.5]];portConstraint=eastwest;rounded=0;shadow=0;html=0;fillColor=#FFFF99;" parent="8l_3pa4N25uh9N-MK_aW-93" vertex="1">
          <mxGeometry y="78" width="160" height="26" as="geometry" />
        </mxCell>
        <mxCell id="8l_3pa4N25uh9N-MK_aW-98" value="house" style="text;align=left;verticalAlign=top;spacingLeft=4;spacingRight=4;overflow=hidden;rotatable=0;points=[[0,0.5],[1,0.5]];portConstraint=eastwest;rounded=0;shadow=0;html=0;fillColor=#FFFF99;" parent="8l_3pa4N25uh9N-MK_aW-93" vertex="1">
          <mxGeometry y="104" width="160" height="26" as="geometry" />
        </mxCell>
        <mxCell id="8l_3pa4N25uh9N-MK_aW-119" value="City" style="swimlane;fontStyle=2;align=center;verticalAlign=top;childLayout=stackLayout;horizontal=1;startSize=26;horizontalStack=0;resizeParent=1;resizeLast=0;collapsible=1;marginBottom=0;rounded=0;shadow=0;strokeWidth=1;fillColor=none;" parent="WIyWlLk6GJQsqaUBKTNV-1" vertex="1">
          <mxGeometry x="150" y="1426" width="160" height="124" as="geometry">
            <mxRectangle x="230" y="140" width="160" height="26" as="alternateBounds" />
          </mxGeometry>
        </mxCell>
        <mxCell id="8l_3pa4N25uh9N-MK_aW-120" value="id" style="text;align=left;verticalAlign=top;spacingLeft=4;spacingRight=4;overflow=hidden;rotatable=0;points=[[0,0.5],[1,0.5]];portConstraint=eastwest;fillColor=#97D077;" parent="8l_3pa4N25uh9N-MK_aW-119" vertex="1">
          <mxGeometry y="26" width="160" height="26" as="geometry" />
        </mxCell>
        <mxCell id="8l_3pa4N25uh9N-MK_aW-121" value="name" style="text;align=left;verticalAlign=top;spacingLeft=4;spacingRight=4;overflow=hidden;rotatable=0;points=[[0,0.5],[1,0.5]];portConstraint=eastwest;rounded=0;shadow=0;html=0;fillColor=#FFFF99;" parent="8l_3pa4N25uh9N-MK_aW-119" vertex="1">
          <mxGeometry y="52" width="160" height="26" as="geometry" />
        </mxCell>
        <mxCell id="8l_3pa4N25uh9N-MK_aW-122" value="country_id" style="text;align=left;verticalAlign=top;spacingLeft=4;spacingRight=4;overflow=hidden;rotatable=0;points=[[0,0.5],[1,0.5]];portConstraint=eastwest;rounded=0;shadow=0;html=0;fillColor=#99FFFF;" parent="8l_3pa4N25uh9N-MK_aW-119" vertex="1">
          <mxGeometry y="78" width="160" height="26" as="geometry" />
        </mxCell>
        <mxCell id="8l_3pa4N25uh9N-MK_aW-123" value="Country" style="swimlane;fontStyle=2;align=center;verticalAlign=top;childLayout=stackLayout;horizontal=1;startSize=26;horizontalStack=0;resizeParent=1;resizeLast=0;collapsible=1;marginBottom=0;rounded=0;shadow=0;strokeWidth=1;fillColor=none;" parent="WIyWlLk6GJQsqaUBKTNV-1" vertex="1">
          <mxGeometry x="150" y="1628" width="160" height="92" as="geometry">
            <mxRectangle x="230" y="140" width="160" height="26" as="alternateBounds" />
          </mxGeometry>
        </mxCell>
        <mxCell id="8l_3pa4N25uh9N-MK_aW-124" value="id" style="text;align=left;verticalAlign=top;spacingLeft=4;spacingRight=4;overflow=hidden;rotatable=0;points=[[0,0.5],[1,0.5]];portConstraint=eastwest;fillColor=#97D077;" parent="8l_3pa4N25uh9N-MK_aW-123" vertex="1">
          <mxGeometry y="26" width="160" height="26" as="geometry" />
        </mxCell>
        <mxCell id="8l_3pa4N25uh9N-MK_aW-125" value="name" style="text;align=left;verticalAlign=top;spacingLeft=4;spacingRight=4;overflow=hidden;rotatable=0;points=[[0,0.5],[1,0.5]];portConstraint=eastwest;rounded=0;shadow=0;html=0;fillColor=#FFFF99;" parent="8l_3pa4N25uh9N-MK_aW-123" vertex="1">
          <mxGeometry y="52" width="160" height="26" as="geometry" />
        </mxCell>
        <mxCell id="8l_3pa4N25uh9N-MK_aW-129" value="" style="endArrow=none;dashed=1;html=1;dashPattern=1 3;strokeWidth=2;rounded=0;" parent="WIyWlLk6GJQsqaUBKTNV-1" edge="1">
          <mxGeometry width="50" height="50" relative="1" as="geometry">
            <mxPoint x="1021" y="2370" as="sourcePoint" />
            <mxPoint x="1041" y="90" as="targetPoint" />
          </mxGeometry>
        </mxCell>
        <mxCell id="8l_3pa4N25uh9N-MK_aW-131" style="edgeStyle=orthogonalEdgeStyle;rounded=0;orthogonalLoop=1;jettySize=auto;html=1;exitX=0;exitY=0.5;exitDx=0;exitDy=0;entryX=1;entryY=0.5;entryDx=0;entryDy=0;fillColor=none;" parent="WIyWlLk6GJQsqaUBKTNV-1" source="8l_3pa4N25uh9N-MK_aW-59" target="8l_3pa4N25uh9N-MK_aW-72" edge="1">
          <mxGeometry relative="1" as="geometry" />
        </mxCell>
        <mxCell id="8l_3pa4N25uh9N-MK_aW-134" value="Client_type" style="swimlane;fontStyle=2;align=center;verticalAlign=top;childLayout=stackLayout;horizontal=1;startSize=26;horizontalStack=0;resizeParent=1;resizeLast=0;collapsible=1;marginBottom=0;rounded=0;shadow=0;strokeWidth=1;fillColor=none;" parent="WIyWlLk6GJQsqaUBKTNV-1" vertex="1">
          <mxGeometry x="418" y="544" width="160" height="89" as="geometry">
            <mxRectangle x="230" y="140" width="160" height="26" as="alternateBounds" />
          </mxGeometry>
        </mxCell>
        <mxCell id="8l_3pa4N25uh9N-MK_aW-135" value="id" style="text;align=left;verticalAlign=top;spacingLeft=4;spacingRight=4;overflow=hidden;rotatable=0;points=[[0,0.5],[1,0.5]];portConstraint=eastwest;fillColor=#97D077;" parent="8l_3pa4N25uh9N-MK_aW-134" vertex="1">
          <mxGeometry y="26" width="160" height="26" as="geometry" />
        </mxCell>
        <mxCell id="8l_3pa4N25uh9N-MK_aW-136" value="name" style="text;align=left;verticalAlign=top;spacingLeft=4;spacingRight=4;overflow=hidden;rotatable=0;points=[[0,0.5],[1,0.5]];portConstraint=eastwest;rounded=0;shadow=0;html=0;fillColor=#FFFF99;" parent="8l_3pa4N25uh9N-MK_aW-134" vertex="1">
          <mxGeometry y="52" width="160" height="26" as="geometry" />
        </mxCell>
        <mxCell id="8l_3pa4N25uh9N-MK_aW-138" style="edgeStyle=orthogonalEdgeStyle;rounded=0;orthogonalLoop=1;jettySize=auto;html=1;exitX=0;exitY=0.5;exitDx=0;exitDy=0;entryX=1;entryY=0.5;entryDx=0;entryDy=0;fillColor=none;" parent="WIyWlLk6GJQsqaUBKTNV-1" source="8l_3pa4N25uh9N-MK_aW-135" target="8l_3pa4N25uh9N-MK_aW-86" edge="1">
          <mxGeometry relative="1" as="geometry">
            <Array as="points">
              <mxPoint x="351" y="583" />
              <mxPoint x="351" y="576" />
            </Array>
          </mxGeometry>
        </mxCell>
        <mxCell id="8l_3pa4N25uh9N-MK_aW-141" style="edgeStyle=orthogonalEdgeStyle;rounded=0;orthogonalLoop=1;jettySize=auto;html=1;entryX=0;entryY=0.5;entryDx=0;entryDy=0;exitX=1;exitY=1;exitDx=0;exitDy=0;fillColor=none;" parent="WIyWlLk6GJQsqaUBKTNV-1" source="e3bbw5qHpkB5V_ZcE8oP-21" target="8l_3pa4N25uh9N-MK_aW-96" edge="1">
          <mxGeometry relative="1" as="geometry">
            <mxPoint x="110" y="1440" as="sourcePoint" />
            <Array as="points">
              <mxPoint x="90" y="1471" />
              <mxPoint x="90" y="1009" />
            </Array>
          </mxGeometry>
        </mxCell>
        <mxCell id="8l_3pa4N25uh9N-MK_aW-142" style="edgeStyle=orthogonalEdgeStyle;rounded=0;orthogonalLoop=1;jettySize=auto;html=1;entryX=0;entryY=0.5;entryDx=0;entryDy=0;fillColor=none;" parent="WIyWlLk6GJQsqaUBKTNV-1" target="8l_3pa4N25uh9N-MK_aW-122" edge="1">
          <mxGeometry relative="1" as="geometry">
            <mxPoint x="150" y="1668" as="sourcePoint" />
            <Array as="points">
              <mxPoint x="110" y="1668" />
              <mxPoint x="110" y="1518" />
            </Array>
          </mxGeometry>
        </mxCell>
        <mxCell id="8l_3pa4N25uh9N-MK_aW-155" value="Orders_with_delay" style="swimlane;fontStyle=2;align=center;verticalAlign=top;childLayout=stackLayout;horizontal=1;startSize=26;horizontalStack=0;resizeParent=1;resizeLast=0;collapsible=1;marginBottom=0;rounded=0;shadow=0;strokeWidth=1;fillColor=none;" parent="WIyWlLk6GJQsqaUBKTNV-1" vertex="1">
          <mxGeometry x="150" y="1980" width="160" height="120" as="geometry">
            <mxRectangle x="230" y="140" width="160" height="26" as="alternateBounds" />
          </mxGeometry>
        </mxCell>
        <mxCell id="8l_3pa4N25uh9N-MK_aW-156" value="id" style="text;align=left;verticalAlign=top;spacingLeft=4;spacingRight=4;overflow=hidden;rotatable=0;points=[[0,0.5],[1,0.5]];portConstraint=eastwest;fillColor=#97D077;" parent="8l_3pa4N25uh9N-MK_aW-155" vertex="1">
          <mxGeometry y="26" width="160" height="22" as="geometry" />
        </mxCell>
        <mxCell id="8l_3pa4N25uh9N-MK_aW-159" value="order_id" style="text;align=left;verticalAlign=top;spacingLeft=4;spacingRight=4;overflow=hidden;rotatable=0;points=[[0,0.5],[1,0.5]];portConstraint=eastwest;fillColor=#99FFFF;" parent="8l_3pa4N25uh9N-MK_aW-155" vertex="1">
          <mxGeometry y="48" width="160" height="26" as="geometry" />
        </mxCell>
        <mxCell id="8l_3pa4N25uh9N-MK_aW-157" value="reason_for_delay" style="text;align=left;verticalAlign=top;spacingLeft=4;spacingRight=4;overflow=hidden;rotatable=0;points=[[0,0.5],[1,0.5]];portConstraint=eastwest;rounded=0;shadow=0;html=0;fillColor=#FFFF99;" parent="8l_3pa4N25uh9N-MK_aW-155" vertex="1">
          <mxGeometry y="74" width="160" height="26" as="geometry" />
        </mxCell>
        <mxCell id="8l_3pa4N25uh9N-MK_aW-162" value="Datamart" style="text;html=1;align=center;verticalAlign=middle;whiteSpace=wrap;rounded=0;fontSize=20;fontStyle=1" parent="WIyWlLk6GJQsqaUBKTNV-1" vertex="1">
          <mxGeometry x="1905" y="28" width="130" height="30" as="geometry" />
        </mxCell>
        <mxCell id="8l_3pa4N25uh9N-MK_aW-187" value="d_warehouse_geography" style="swimlane;fontStyle=2;align=center;verticalAlign=top;childLayout=stackLayout;horizontal=1;startSize=26;horizontalStack=0;resizeParent=1;resizeLast=0;collapsible=1;marginBottom=0;rounded=0;shadow=0;strokeWidth=1;fillColor=none;" parent="WIyWlLk6GJQsqaUBKTNV-1" vertex="1">
          <mxGeometry x="1870" y="523" width="160" height="156" as="geometry">
            <mxRectangle x="230" y="140" width="160" height="26" as="alternateBounds" />
          </mxGeometry>
        </mxCell>
        <mxCell id="DnuqKbJlAa81eqGboaNl-152" value="warehouse_id" style="text;align=left;verticalAlign=top;spacingLeft=4;spacingRight=4;overflow=hidden;rotatable=0;points=[[0,0.5],[1,0.5]];portConstraint=eastwest;fillColor=none;" parent="8l_3pa4N25uh9N-MK_aW-187" vertex="1">
          <mxGeometry y="26" width="160" height="26" as="geometry" />
        </mxCell>
        <mxCell id="DnuqKbJlAa81eqGboaNl-237" value="warehouse_name" style="text;align=left;verticalAlign=top;spacingLeft=4;spacingRight=4;overflow=hidden;rotatable=0;points=[[0,0.5],[1,0.5]];portConstraint=eastwest;rounded=0;shadow=0;html=0;fillColor=none;" parent="8l_3pa4N25uh9N-MK_aW-187" vertex="1">
          <mxGeometry y="52" width="160" height="26" as="geometry" />
        </mxCell>
        <mxCell id="DnuqKbJlAa81eqGboaNl-239" value="warehouse_system_name" style="text;align=left;verticalAlign=top;spacingLeft=4;spacingRight=4;overflow=hidden;rotatable=0;points=[[0,0.5],[1,0.5]];portConstraint=eastwest;rounded=0;shadow=0;html=0;fillColor=none;" parent="8l_3pa4N25uh9N-MK_aW-187" vertex="1">
          <mxGeometry y="78" width="160" height="26" as="geometry" />
        </mxCell>
        <mxCell id="8l_3pa4N25uh9N-MK_aW-189" value="city_name" style="text;align=left;verticalAlign=top;spacingLeft=4;spacingRight=4;overflow=hidden;rotatable=0;points=[[0,0.5],[1,0.5]];portConstraint=eastwest;rounded=0;shadow=0;html=0;fillColor=none;" parent="8l_3pa4N25uh9N-MK_aW-187" vertex="1">
          <mxGeometry y="104" width="160" height="26" as="geometry" />
        </mxCell>
        <mxCell id="8l_3pa4N25uh9N-MK_aW-190" value="country_name" style="text;align=left;verticalAlign=top;spacingLeft=4;spacingRight=4;overflow=hidden;rotatable=0;points=[[0,0.5],[1,0.5]];portConstraint=eastwest;rounded=0;shadow=0;html=0;fillColor=none;" parent="8l_3pa4N25uh9N-MK_aW-187" vertex="1">
          <mxGeometry y="130" width="160" height="26" as="geometry" />
        </mxCell>
        <mxCell id="8l_3pa4N25uh9N-MK_aW-202" value="Currency" style="swimlane;fontStyle=2;align=center;verticalAlign=top;childLayout=stackLayout;horizontal=1;startSize=26;horizontalStack=0;resizeParent=1;resizeLast=0;collapsible=1;marginBottom=0;rounded=0;shadow=0;strokeWidth=1;fillColor=none;" parent="WIyWlLk6GJQsqaUBKTNV-1" vertex="1">
          <mxGeometry x="150" y="1214" width="160" height="86" as="geometry">
            <mxRectangle x="230" y="140" width="160" height="26" as="alternateBounds" />
          </mxGeometry>
        </mxCell>
        <mxCell id="8l_3pa4N25uh9N-MK_aW-203" value="code" style="text;align=left;verticalAlign=top;spacingLeft=4;spacingRight=4;overflow=hidden;rotatable=0;points=[[0,0.5],[1,0.5]];portConstraint=eastwest;fillColor=#97D077;" parent="8l_3pa4N25uh9N-MK_aW-202" vertex="1">
          <mxGeometry y="26" width="160" height="26" as="geometry" />
        </mxCell>
        <mxCell id="8l_3pa4N25uh9N-MK_aW-204" value="name" style="text;align=left;verticalAlign=top;spacingLeft=4;spacingRight=4;overflow=hidden;rotatable=0;points=[[0,0.5],[1,0.5]];portConstraint=eastwest;rounded=0;shadow=0;html=0;fillColor=#FFFF99;" parent="8l_3pa4N25uh9N-MK_aW-202" vertex="1">
          <mxGeometry y="52" width="160" height="26" as="geometry" />
        </mxCell>
        <mxCell id="8l_3pa4N25uh9N-MK_aW-206" style="edgeStyle=orthogonalEdgeStyle;rounded=0;orthogonalLoop=1;jettySize=auto;html=1;entryX=1;entryY=0.5;entryDx=0;entryDy=0;exitX=1;exitY=0.5;exitDx=0;exitDy=0;fillColor=none;" parent="WIyWlLk6GJQsqaUBKTNV-1" source="8l_3pa4N25uh9N-MK_aW-203" target="8l_3pa4N25uh9N-MK_aW-68" edge="1">
          <mxGeometry relative="1" as="geometry">
            <Array as="points">
              <mxPoint x="630" y="1253" />
              <mxPoint x="630" y="365" />
            </Array>
          </mxGeometry>
        </mxCell>
        <mxCell id="8l_3pa4N25uh9N-MK_aW-213" value="Currency_rate" style="swimlane;fontStyle=2;align=center;verticalAlign=top;childLayout=stackLayout;horizontal=1;startSize=26;horizontalStack=0;resizeParent=1;resizeLast=0;collapsible=1;marginBottom=0;rounded=0;shadow=0;strokeWidth=1;fillColor=none;" parent="WIyWlLk6GJQsqaUBKTNV-1" vertex="1">
          <mxGeometry x="150" y="1750" width="160" height="172" as="geometry">
            <mxRectangle x="230" y="140" width="160" height="26" as="alternateBounds" />
          </mxGeometry>
        </mxCell>
        <mxCell id="8l_3pa4N25uh9N-MK_aW-242" value="id" style="text;align=left;verticalAlign=top;spacingLeft=4;spacingRight=4;overflow=hidden;rotatable=0;points=[[0,0.5],[1,0.5]];portConstraint=eastwest;fillColor=#97D077;" parent="8l_3pa4N25uh9N-MK_aW-213" vertex="1">
          <mxGeometry y="26" width="160" height="26" as="geometry" />
        </mxCell>
        <mxCell id="8l_3pa4N25uh9N-MK_aW-216" value="currency_code" style="text;align=left;verticalAlign=top;spacingLeft=4;spacingRight=4;overflow=hidden;rotatable=0;points=[[0,0.5],[1,0.5]];portConstraint=eastwest;fillColor=#99FFFF;" parent="8l_3pa4N25uh9N-MK_aW-213" vertex="1">
          <mxGeometry y="52" width="160" height="26" as="geometry" />
        </mxCell>
        <mxCell id="8l_3pa4N25uh9N-MK_aW-215" value="relation_to_rur" style="text;align=left;verticalAlign=top;spacingLeft=4;spacingRight=4;overflow=hidden;rotatable=0;points=[[0,0.5],[1,0.5]];portConstraint=eastwest;rounded=0;shadow=0;html=0;fillColor=#FFFF99;" parent="8l_3pa4N25uh9N-MK_aW-213" vertex="1">
          <mxGeometry y="78" width="160" height="28" as="geometry" />
        </mxCell>
        <mxCell id="8l_3pa4N25uh9N-MK_aW-217" value="date_start" style="text;align=left;verticalAlign=top;spacingLeft=4;spacingRight=4;overflow=hidden;rotatable=0;points=[[0,0.5],[1,0.5]];portConstraint=eastwest;rounded=0;shadow=0;html=0;fillColor=#FFFF99;" parent="8l_3pa4N25uh9N-MK_aW-213" vertex="1">
          <mxGeometry y="106" width="160" height="28" as="geometry" />
        </mxCell>
        <mxCell id="8l_3pa4N25uh9N-MK_aW-219" value="date_end" style="text;align=left;verticalAlign=top;spacingLeft=4;spacingRight=4;overflow=hidden;rotatable=0;points=[[0,0.5],[1,0.5]];portConstraint=eastwest;rounded=0;shadow=0;html=0;fillColor=#FFFF99;" parent="8l_3pa4N25uh9N-MK_aW-213" vertex="1">
          <mxGeometry y="134" width="160" height="28" as="geometry" />
        </mxCell>
        <mxCell id="8l_3pa4N25uh9N-MK_aW-218" style="edgeStyle=orthogonalEdgeStyle;rounded=0;orthogonalLoop=1;jettySize=auto;html=1;exitX=1;exitY=0.5;exitDx=0;exitDy=0;fillColor=none;" parent="WIyWlLk6GJQsqaUBKTNV-1" source="8l_3pa4N25uh9N-MK_aW-203" edge="1">
          <mxGeometry relative="1" as="geometry">
            <Array as="points">
              <mxPoint x="360" y="1253" />
              <mxPoint x="360" y="1820" />
              <mxPoint x="310" y="1820" />
            </Array>
            <mxPoint x="310" y="1820" as="targetPoint" />
          </mxGeometry>
        </mxCell>
        <mxCell id="8l_3pa4N25uh9N-MK_aW-233" style="edgeStyle=orthogonalEdgeStyle;rounded=0;orthogonalLoop=1;jettySize=auto;html=1;exitX=1;exitY=0.5;exitDx=0;exitDy=0;fillColor=none;" parent="WIyWlLk6GJQsqaUBKTNV-1" source="8l_3pa4N25uh9N-MK_aW-90" target="DnuqKbJlAa81eqGboaNl-20" edge="1">
          <mxGeometry relative="1" as="geometry">
            <Array as="points">
              <mxPoint x="617" y="923" />
              <mxPoint x="617" y="817" />
            </Array>
            <mxPoint x="582" y="1003" as="sourcePoint" />
            <mxPoint x="575" y="817" as="targetPoint" />
          </mxGeometry>
        </mxCell>
        <mxCell id="e3bbw5qHpkB5V_ZcE8oP-0" value="&lt;span style=&quot;font-size:12.0pt;font-family:&amp;quot;Liberation Serif&amp;quot;,serif;&lt;br/&gt;mso-fareast-font-family:NSimSun;mso-bidi-font-family:&amp;quot;Lucida Sans&amp;quot;;mso-ansi-language:&lt;br/&gt;RU;mso-fareast-language:ZH-CN;mso-bidi-language:HI&quot;&gt;0..&lt;/span&gt;&lt;span lang=&quot;EN-US&quot; style=&quot;font-size:12.0pt;font-family:&amp;quot;Liberation Serif&amp;quot;,serif;mso-fareast-font-family:&lt;br/&gt;NSimSun;mso-bidi-font-family:&amp;quot;Lucida Sans&amp;quot;;mso-ansi-language:EN-US;mso-fareast-language:&lt;br/&gt;ZH-CN;mso-bidi-language:HI&quot;&gt;n&lt;/span&gt;" style="text;whiteSpace=wrap;html=1;fillColor=none;" parent="WIyWlLk6GJQsqaUBKTNV-1" vertex="1">
          <mxGeometry x="90" y="2012" width="60" height="40" as="geometry" />
        </mxCell>
        <mxCell id="e3bbw5qHpkB5V_ZcE8oP-2" value="&lt;span style=&quot;font-size:12.0pt;font-family:&amp;quot;Liberation Serif&amp;quot;,serif;&#xa;mso-fareast-font-family:NSimSun;mso-bidi-font-family:&amp;quot;Lucida Sans&amp;quot;;mso-ansi-language:&#xa;RU;mso-fareast-language:ZH-CN;mso-bidi-language:HI&quot;&gt;1..&lt;/span&gt;&lt;span lang=&quot;EN-US&quot; style=&quot;font-size:12.0pt;font-family:&amp;quot;Liberation Serif&amp;quot;,serif;mso-fareast-font-family:&#xa;NSimSun;mso-bidi-font-family:&amp;quot;Lucida Sans&amp;quot;;mso-ansi-language:EN-US;mso-fareast-language:&#xa;ZH-CN;mso-bidi-language:HI&quot;&gt;n&lt;/span&gt;" style="text;whiteSpace=wrap;html=1;fillColor=none;" parent="WIyWlLk6GJQsqaUBKTNV-1" vertex="1">
          <mxGeometry x="578" y="180" width="60" height="40" as="geometry" />
        </mxCell>
        <mxCell id="e3bbw5qHpkB5V_ZcE8oP-3" value="&lt;span style=&quot;font-size:12.0pt;font-family:&amp;quot;Liberation Serif&amp;quot;,serif;&#xa;mso-fareast-font-family:NSimSun;mso-bidi-font-family:&amp;quot;Lucida Sans&amp;quot;;mso-ansi-language:&#xa;RU;mso-fareast-language:ZH-CN;mso-bidi-language:HI&quot;&gt;1..&lt;/span&gt;&lt;span lang=&quot;EN-US&quot; style=&quot;font-size:12.0pt;font-family:&amp;quot;Liberation Serif&amp;quot;,serif;mso-fareast-font-family:&#xa;NSimSun;mso-bidi-font-family:&amp;quot;Lucida Sans&amp;quot;;mso-ansi-language:EN-US;mso-fareast-language:&#xa;ZH-CN;mso-bidi-language:HI&quot;&gt;n&lt;/span&gt;" style="text;whiteSpace=wrap;html=1;fillColor=none;" parent="WIyWlLk6GJQsqaUBKTNV-1" vertex="1">
          <mxGeometry x="317.5" y="459" width="60" height="40" as="geometry" />
        </mxCell>
        <mxCell id="e3bbw5qHpkB5V_ZcE8oP-4" style="edgeStyle=orthogonalEdgeStyle;rounded=0;orthogonalLoop=1;jettySize=auto;html=1;entryX=1;entryY=0.5;entryDx=0;entryDy=0;exitX=0;exitY=0.5;exitDx=0;exitDy=0;fillColor=none;" parent="WIyWlLk6GJQsqaUBKTNV-1" source="DnuqKbJlAa81eqGboaNl-184" target="8l_3pa4N25uh9N-MK_aW-94" edge="1">
          <mxGeometry relative="1" as="geometry" />
        </mxCell>
        <mxCell id="e3bbw5qHpkB5V_ZcE8oP-5" value="&lt;font face=&quot;Liberation Serif, serif&quot;&gt;&lt;span style=&quot;font-size: 16px;&quot;&gt;1&lt;/span&gt;&lt;/font&gt;" style="text;whiteSpace=wrap;html=1;fillColor=none;" parent="WIyWlLk6GJQsqaUBKTNV-1" vertex="1">
          <mxGeometry x="317.5" y="949" width="55" height="40" as="geometry" />
        </mxCell>
        <mxCell id="e3bbw5qHpkB5V_ZcE8oP-6" value="&lt;span style=&quot;font-size:12.0pt;font-family:&amp;quot;Liberation Serif&amp;quot;,serif;&#xa;mso-fareast-font-family:NSimSun;mso-bidi-font-family:&amp;quot;Lucida Sans&amp;quot;;mso-ansi-language:&#xa;RU;mso-fareast-language:ZH-CN;mso-bidi-language:HI&quot;&gt;1..&lt;/span&gt;&lt;span lang=&quot;EN-US&quot; style=&quot;font-size:12.0pt;font-family:&amp;quot;Liberation Serif&amp;quot;,serif;mso-fareast-font-family:&#xa;NSimSun;mso-bidi-font-family:&amp;quot;Lucida Sans&amp;quot;;mso-ansi-language:EN-US;mso-fareast-language:&#xa;ZH-CN;mso-bidi-language:HI&quot;&gt;n&lt;/span&gt;" style="text;whiteSpace=wrap;html=1;fillColor=none;" parent="WIyWlLk6GJQsqaUBKTNV-1" vertex="1">
          <mxGeometry x="116" y="1004" width="50" height="40" as="geometry" />
        </mxCell>
        <mxCell id="e3bbw5qHpkB5V_ZcE8oP-7" value="&lt;span style=&quot;font-size:12.0pt;font-family:&amp;quot;Liberation Serif&amp;quot;,serif;&#xa;mso-fareast-font-family:NSimSun;mso-bidi-font-family:&amp;quot;Lucida Sans&amp;quot;;mso-ansi-language:&#xa;RU;mso-fareast-language:ZH-CN;mso-bidi-language:HI&quot;&gt;1..&lt;/span&gt;&lt;span lang=&quot;EN-US&quot; style=&quot;font-size:12.0pt;font-family:&amp;quot;Liberation Serif&amp;quot;,serif;mso-fareast-font-family:&#xa;NSimSun;mso-bidi-font-family:&amp;quot;Lucida Sans&amp;quot;;mso-ansi-language:EN-US;mso-fareast-language:&#xa;ZH-CN;mso-bidi-language:HI&quot;&gt;n&lt;/span&gt;" style="text;whiteSpace=wrap;html=1;fillColor=none;" parent="WIyWlLk6GJQsqaUBKTNV-1" vertex="1">
          <mxGeometry x="110" y="1486" width="60" height="40" as="geometry" />
        </mxCell>
        <mxCell id="e3bbw5qHpkB5V_ZcE8oP-9" value="&lt;span style=&quot;font-size:12.0pt;font-family:&amp;quot;Liberation Serif&amp;quot;,serif;&#xa;mso-fareast-font-family:NSimSun;mso-bidi-font-family:&amp;quot;Lucida Sans&amp;quot;;mso-ansi-language:&#xa;RU;mso-fareast-language:ZH-CN;mso-bidi-language:HI&quot;&gt;1..&lt;/span&gt;&lt;span lang=&quot;EN-US&quot; style=&quot;font-size:12.0pt;font-family:&amp;quot;Liberation Serif&amp;quot;,serif;mso-fareast-font-family:&#xa;NSimSun;mso-bidi-font-family:&amp;quot;Lucida Sans&amp;quot;;mso-ansi-language:EN-US;mso-fareast-language:&#xa;ZH-CN;mso-bidi-language:HI&quot;&gt;n&lt;/span&gt;" style="text;whiteSpace=wrap;html=1;fillColor=none;" parent="WIyWlLk6GJQsqaUBKTNV-1" vertex="1">
          <mxGeometry x="570" y="320" width="60" height="40" as="geometry" />
        </mxCell>
        <mxCell id="e3bbw5qHpkB5V_ZcE8oP-10" value="&lt;span style=&quot;font-size:12.0pt;font-family:&amp;quot;Liberation Serif&amp;quot;,serif;&#xa;mso-fareast-font-family:NSimSun;mso-bidi-font-family:&amp;quot;Lucida Sans&amp;quot;;mso-ansi-language:&#xa;RU;mso-fareast-language:ZH-CN;mso-bidi-language:HI&quot;&gt;1..&lt;/span&gt;&lt;span lang=&quot;EN-US&quot; style=&quot;font-size:12.0pt;font-family:&amp;quot;Liberation Serif&amp;quot;,serif;mso-fareast-font-family:&#xa;NSimSun;mso-bidi-font-family:&amp;quot;Lucida Sans&amp;quot;;mso-ansi-language:EN-US;mso-fareast-language:&#xa;ZH-CN;mso-bidi-language:HI&quot;&gt;n&lt;/span&gt;" style="text;whiteSpace=wrap;html=1;fillColor=none;" parent="WIyWlLk6GJQsqaUBKTNV-1" vertex="1">
          <mxGeometry x="570" y="820" width="60" height="40" as="geometry" />
        </mxCell>
        <mxCell id="e3bbw5qHpkB5V_ZcE8oP-11" value="&lt;span style=&quot;font-size:12.0pt;font-family:&amp;quot;Liberation Serif&amp;quot;,serif;&#xa;mso-fareast-font-family:NSimSun;mso-bidi-font-family:&amp;quot;Lucida Sans&amp;quot;;mso-ansi-language:&#xa;RU;mso-fareast-language:ZH-CN;mso-bidi-language:HI&quot;&gt;1..&lt;/span&gt;&lt;span lang=&quot;EN-US&quot; style=&quot;font-size:12.0pt;font-family:&amp;quot;Liberation Serif&amp;quot;,serif;mso-fareast-font-family:&#xa;NSimSun;mso-bidi-font-family:&amp;quot;Lucida Sans&amp;quot;;mso-ansi-language:EN-US;mso-fareast-language:&#xa;ZH-CN;mso-bidi-language:HI&quot;&gt;n&lt;/span&gt;" style="text;whiteSpace=wrap;html=1;fillColor=none;" parent="WIyWlLk6GJQsqaUBKTNV-1" vertex="1">
          <mxGeometry x="315" y="1770" width="60" height="21" as="geometry" />
        </mxCell>
        <mxCell id="e3bbw5qHpkB5V_ZcE8oP-12" style="edgeStyle=orthogonalEdgeStyle;rounded=0;orthogonalLoop=1;jettySize=auto;html=1;entryX=0;entryY=0.5;entryDx=0;entryDy=0;fillColor=none;" parent="WIyWlLk6GJQsqaUBKTNV-1" source="8l_3pa4N25uh9N-MK_aW-72" target="8l_3pa4N25uh9N-MK_aW-159" edge="1">
          <mxGeometry relative="1" as="geometry">
            <Array as="points">
              <mxPoint x="80" y="209" />
              <mxPoint x="80" y="2041" />
            </Array>
          </mxGeometry>
        </mxCell>
        <mxCell id="e3bbw5qHpkB5V_ZcE8oP-13" value="&lt;span style=&quot;font-size:12.0pt;font-family:&amp;quot;Liberation Serif&amp;quot;,serif;&lt;br/&gt;mso-fareast-font-family:NSimSun;mso-bidi-font-family:&amp;quot;Lucida Sans&amp;quot;;mso-ansi-language:&lt;br/&gt;RU;mso-fareast-language:ZH-CN;mso-bidi-language:HI&quot;&gt;1&lt;/span&gt;" style="text;whiteSpace=wrap;html=1;fillColor=none;" parent="WIyWlLk6GJQsqaUBKTNV-1" vertex="1">
          <mxGeometry x="390" y="180" width="20" height="40" as="geometry" />
        </mxCell>
        <mxCell id="e3bbw5qHpkB5V_ZcE8oP-15" value="&lt;span style=&quot;font-size:12.0pt;font-family:&amp;quot;Liberation Serif&amp;quot;,serif;&lt;br/&gt;mso-fareast-font-family:NSimSun;mso-bidi-font-family:&amp;quot;Lucida Sans&amp;quot;;mso-ansi-language:&lt;br/&gt;RU;mso-fareast-language:ZH-CN;mso-bidi-language:HI&quot;&gt;1&lt;/span&gt;" style="text;whiteSpace=wrap;html=1;fillColor=none;" parent="WIyWlLk6GJQsqaUBKTNV-1" vertex="1">
          <mxGeometry x="398" y="550" width="20" height="40" as="geometry" />
        </mxCell>
        <mxCell id="e3bbw5qHpkB5V_ZcE8oP-16" value="&lt;span style=&quot;font-size:12.0pt;font-family:&amp;quot;Liberation Serif&amp;quot;,serif;&lt;br/&gt;mso-fareast-font-family:NSimSun;mso-bidi-font-family:&amp;quot;Lucida Sans&amp;quot;;mso-ansi-language:&lt;br/&gt;RU;mso-fareast-language:ZH-CN;mso-bidi-language:HI&quot;&gt;1&lt;/span&gt;" style="text;whiteSpace=wrap;html=1;fillColor=none;" parent="WIyWlLk6GJQsqaUBKTNV-1" vertex="1">
          <mxGeometry x="648" y="180" width="20" height="40" as="geometry" />
        </mxCell>
        <mxCell id="e3bbw5qHpkB5V_ZcE8oP-18" value="&lt;span style=&quot;font-size:12.0pt;font-family:&amp;quot;Liberation Serif&amp;quot;,serif;&lt;br/&gt;mso-fareast-font-family:NSimSun;mso-bidi-font-family:&amp;quot;Lucida Sans&amp;quot;;mso-ansi-language:&lt;br/&gt;RU;mso-fareast-language:ZH-CN;mso-bidi-language:HI&quot;&gt;1&lt;/span&gt;" style="text;whiteSpace=wrap;html=1;fillColor=none;" parent="WIyWlLk6GJQsqaUBKTNV-1" vertex="1">
          <mxGeometry x="569" y="876.5" width="20" height="40" as="geometry" />
        </mxCell>
        <mxCell id="e3bbw5qHpkB5V_ZcE8oP-19" value="&lt;span style=&quot;font-size:12.0pt;font-family:&amp;quot;Liberation Serif&amp;quot;,serif;&lt;br/&gt;mso-fareast-font-family:NSimSun;mso-bidi-font-family:&amp;quot;Lucida Sans&amp;quot;;mso-ansi-language:&lt;br/&gt;RU;mso-fareast-language:ZH-CN;mso-bidi-language:HI&quot;&gt;1&lt;/span&gt;" style="text;whiteSpace=wrap;html=1;fillColor=none;" parent="WIyWlLk6GJQsqaUBKTNV-1" vertex="1">
          <mxGeometry x="376" y="1092" width="20" height="40" as="geometry" />
        </mxCell>
        <mxCell id="e3bbw5qHpkB5V_ZcE8oP-20" value="&lt;span style=&quot;font-size:12.0pt;font-family:&amp;quot;Liberation Serif&amp;quot;,serif;&lt;br/&gt;mso-fareast-font-family:NSimSun;mso-bidi-font-family:&amp;quot;Lucida Sans&amp;quot;;mso-ansi-language:&lt;br/&gt;RU;mso-fareast-language:ZH-CN;mso-bidi-language:HI&quot;&gt;1&lt;/span&gt;" style="text;whiteSpace=wrap;html=1;fillColor=none;" parent="WIyWlLk6GJQsqaUBKTNV-1" vertex="1">
          <mxGeometry x="315" y="1224" width="20" height="40" as="geometry" />
        </mxCell>
        <mxCell id="e3bbw5qHpkB5V_ZcE8oP-21" value="&lt;span style=&quot;font-size:12.0pt;font-family:&amp;quot;Liberation Serif&amp;quot;,serif;&lt;br/&gt;mso-fareast-font-family:NSimSun;mso-bidi-font-family:&amp;quot;Lucida Sans&amp;quot;;mso-ansi-language:&lt;br/&gt;RU;mso-fareast-language:ZH-CN;mso-bidi-language:HI&quot;&gt;1&lt;/span&gt;" style="text;whiteSpace=wrap;html=1;fillColor=none;" parent="WIyWlLk6GJQsqaUBKTNV-1" vertex="1">
          <mxGeometry x="131" y="1430" width="20" height="40" as="geometry" />
        </mxCell>
        <mxCell id="e3bbw5qHpkB5V_ZcE8oP-22" value="&lt;span style=&quot;font-size:12.0pt;font-family:&amp;quot;Liberation Serif&amp;quot;,serif;&lt;br/&gt;mso-fareast-font-family:NSimSun;mso-bidi-font-family:&amp;quot;Lucida Sans&amp;quot;;mso-ansi-language:&lt;br/&gt;RU;mso-fareast-language:ZH-CN;mso-bidi-language:HI&quot;&gt;1&lt;/span&gt;" style="text;whiteSpace=wrap;html=1;fillColor=none;" parent="WIyWlLk6GJQsqaUBKTNV-1" vertex="1">
          <mxGeometry x="135" y="1638" width="20" height="40" as="geometry" />
        </mxCell>
        <mxCell id="e3bbw5qHpkB5V_ZcE8oP-26" value="&lt;span style=&quot;font-size:12.0pt;font-family:&amp;quot;Liberation Serif&amp;quot;,serif;&lt;br/&gt;mso-fareast-font-family:NSimSun;mso-bidi-font-family:&amp;quot;Lucida Sans&amp;quot;;mso-ansi-language:&lt;br/&gt;RU;mso-fareast-language:ZH-CN;mso-bidi-language:HI&quot;&gt;1&lt;/span&gt;" style="text;whiteSpace=wrap;html=1;fillColor=none;" parent="WIyWlLk6GJQsqaUBKTNV-1" vertex="1">
          <mxGeometry x="2040" y="523" width="20" height="40" as="geometry" />
        </mxCell>
        <mxCell id="e3bbw5qHpkB5V_ZcE8oP-27" value="&lt;span style=&quot;font-size:12.0pt;font-family:&amp;quot;Liberation Serif&amp;quot;,serif;&#xa;mso-fareast-font-family:NSimSun;mso-bidi-font-family:&amp;quot;Lucida Sans&amp;quot;;mso-ansi-language:&#xa;RU;mso-fareast-language:ZH-CN;mso-bidi-language:HI&quot;&gt;1..&lt;/span&gt;&lt;span lang=&quot;EN-US&quot; style=&quot;font-size:12.0pt;font-family:&amp;quot;Liberation Serif&amp;quot;,serif;mso-fareast-font-family:&#xa;NSimSun;mso-bidi-font-family:&amp;quot;Lucida Sans&amp;quot;;mso-ansi-language:EN-US;mso-fareast-language:&#xa;ZH-CN;mso-bidi-language:HI&quot;&gt;n&lt;/span&gt;" style="text;whiteSpace=wrap;html=1;fillColor=none;" parent="WIyWlLk6GJQsqaUBKTNV-1" vertex="1">
          <mxGeometry x="2190" y="450" width="60" height="40" as="geometry" />
        </mxCell>
        <mxCell id="e3bbw5qHpkB5V_ZcE8oP-28" value="&lt;span style=&quot;font-size:12.0pt;font-family:&amp;quot;Liberation Serif&amp;quot;,serif;&#xa;mso-fareast-font-family:NSimSun;mso-bidi-font-family:&amp;quot;Lucida Sans&amp;quot;;mso-ansi-language:&#xa;RU;mso-fareast-language:ZH-CN;mso-bidi-language:HI&quot;&gt;1..&lt;/span&gt;&lt;span lang=&quot;EN-US&quot; style=&quot;font-size:12.0pt;font-family:&amp;quot;Liberation Serif&amp;quot;,serif;mso-fareast-font-family:&#xa;NSimSun;mso-bidi-font-family:&amp;quot;Lucida Sans&amp;quot;;mso-ansi-language:EN-US;mso-fareast-language:&#xa;ZH-CN;mso-bidi-language:HI&quot;&gt;n&lt;/span&gt;" style="text;whiteSpace=wrap;html=1;fillColor=none;" parent="WIyWlLk6GJQsqaUBKTNV-1" vertex="1">
          <mxGeometry x="2190" y="280" width="60" height="40" as="geometry" />
        </mxCell>
        <mxCell id="DnuqKbJlAa81eqGboaNl-0" value="order_status_history" style="swimlane;fontStyle=2;align=center;verticalAlign=top;childLayout=stackLayout;horizontal=1;startSize=26;horizontalStack=0;resizeParent=1;resizeLast=0;collapsible=1;marginBottom=0;rounded=0;shadow=0;strokeWidth=1;fillColor=none;" parent="WIyWlLk6GJQsqaUBKTNV-1" vertex="1">
          <mxGeometry x="408" y="700" width="160" height="156" as="geometry">
            <mxRectangle x="230" y="140" width="160" height="26" as="alternateBounds" />
          </mxGeometry>
        </mxCell>
        <mxCell id="DnuqKbJlAa81eqGboaNl-1" value="id" style="text;align=left;verticalAlign=top;spacingLeft=4;spacingRight=4;overflow=hidden;rotatable=0;points=[[0,0.5],[1,0.5]];portConstraint=eastwest;fillColor=#97D077;" parent="DnuqKbJlAa81eqGboaNl-0" vertex="1">
          <mxGeometry y="26" width="160" height="26" as="geometry" />
        </mxCell>
        <mxCell id="DnuqKbJlAa81eqGboaNl-2" value="order_id" style="text;align=left;verticalAlign=top;spacingLeft=4;spacingRight=4;overflow=hidden;rotatable=0;points=[[0,0.5],[1,0.5]];portConstraint=eastwest;rounded=0;shadow=0;html=0;fillColor=#99FFFF;" parent="DnuqKbJlAa81eqGboaNl-0" vertex="1">
          <mxGeometry y="52" width="160" height="26" as="geometry" />
        </mxCell>
        <mxCell id="DnuqKbJlAa81eqGboaNl-3" value="status_id" style="text;align=left;verticalAlign=top;spacingLeft=4;spacingRight=4;overflow=hidden;rotatable=0;points=[[0,0.5],[1,0.5]];portConstraint=eastwest;rounded=0;shadow=0;html=0;fillColor=#99FFFF;" parent="DnuqKbJlAa81eqGboaNl-0" vertex="1">
          <mxGeometry y="78" width="160" height="26" as="geometry" />
        </mxCell>
        <mxCell id="DnuqKbJlAa81eqGboaNl-20" value="warehouse_id" style="text;align=left;verticalAlign=top;spacingLeft=4;spacingRight=4;overflow=hidden;rotatable=0;points=[[0,0.5],[1,0.5]];portConstraint=eastwest;rounded=0;shadow=0;html=0;fillColor=#99FFFF;" parent="DnuqKbJlAa81eqGboaNl-0" vertex="1">
          <mxGeometry y="104" width="160" height="26" as="geometry" />
        </mxCell>
        <mxCell id="NTMJhpEB9etkx_YTp02U-0" value="status_datetime" style="text;align=left;verticalAlign=top;spacingLeft=4;spacingRight=4;overflow=hidden;rotatable=0;points=[[0,0.5],[1,0.5]];portConstraint=eastwest;rounded=0;shadow=0;html=0;fillColor=#FFFF99;" parent="DnuqKbJlAa81eqGboaNl-0" vertex="1">
          <mxGeometry y="130" width="160" height="26" as="geometry" />
        </mxCell>
        <mxCell id="DnuqKbJlAa81eqGboaNl-6" value="Sources" style="text;html=1;align=center;verticalAlign=middle;whiteSpace=wrap;rounded=0;fontSize=20;fontStyle=1;fillColor=none;" parent="WIyWlLk6GJQsqaUBKTNV-1" vertex="1">
          <mxGeometry x="406" y="30" width="130" height="30" as="geometry" />
        </mxCell>
        <mxCell id="DnuqKbJlAa81eqGboaNl-10" value="CSV&lt;div&gt;15 Files&lt;/div&gt;" style="shape=cylinder3;whiteSpace=wrap;html=1;boundedLbl=1;backgroundOutline=1;size=15;" parent="WIyWlLk6GJQsqaUBKTNV-1" vertex="1">
          <mxGeometry x="870" y="108" width="91" height="134" as="geometry" />
        </mxCell>
        <mxCell id="DnuqKbJlAa81eqGboaNl-11" value="" style="endArrow=none;dashed=1;html=1;dashPattern=1 3;strokeWidth=2;rounded=0;" parent="WIyWlLk6GJQsqaUBKTNV-1" source="DnuqKbJlAa81eqGboaNl-35" edge="1">
          <mxGeometry width="50" height="50" relative="1" as="geometry">
            <mxPoint x="1261" y="2358" as="sourcePoint" />
            <mxPoint x="1261" y="78" as="targetPoint" />
          </mxGeometry>
        </mxCell>
        <mxCell id="DnuqKbJlAa81eqGboaNl-12" value="Staging" style="text;html=1;align=center;verticalAlign=middle;whiteSpace=wrap;rounded=0;fontSize=20;fontStyle=1" parent="WIyWlLk6GJQsqaUBKTNV-1" vertex="1">
          <mxGeometry x="1071" y="18" width="130" height="30" as="geometry" />
        </mxCell>
        <mxCell id="DnuqKbJlAa81eqGboaNl-13" value="Raw Data Vault" style="text;html=1;align=center;verticalAlign=middle;whiteSpace=wrap;rounded=0;fontSize=20;fontStyle=1" parent="WIyWlLk6GJQsqaUBKTNV-1" vertex="1">
          <mxGeometry x="1319" y="18" width="130" height="30" as="geometry" />
        </mxCell>
        <mxCell id="DnuqKbJlAa81eqGboaNl-14" value="" style="endArrow=none;dashed=1;html=1;dashPattern=1 3;strokeWidth=2;rounded=0;" parent="WIyWlLk6GJQsqaUBKTNV-1" source="DnuqKbJlAa81eqGboaNl-38" edge="1">
          <mxGeometry width="50" height="50" relative="1" as="geometry">
            <mxPoint x="1501" y="2358" as="sourcePoint" />
            <mxPoint x="1521" y="78" as="targetPoint" />
          </mxGeometry>
        </mxCell>
        <mxCell id="DnuqKbJlAa81eqGboaNl-16" value="15 Hubs&lt;div&gt;15 Links&lt;/div&gt;&lt;div&gt;15 Satellites&lt;/div&gt;" style="shape=cylinder3;whiteSpace=wrap;html=1;boundedLbl=1;backgroundOutline=1;size=15;" parent="WIyWlLk6GJQsqaUBKTNV-1" vertex="1">
          <mxGeometry x="1341" y="104" width="86" height="134" as="geometry" />
        </mxCell>
        <mxCell id="DnuqKbJlAa81eqGboaNl-18" value="CDM" style="text;html=1;align=center;verticalAlign=middle;whiteSpace=wrap;rounded=0;fontSize=20;fontStyle=1" parent="WIyWlLk6GJQsqaUBKTNV-1" vertex="1">
          <mxGeometry x="1610" y="28" width="130" height="30" as="geometry" />
        </mxCell>
        <mxCell id="DnuqKbJlAa81eqGboaNl-19" value="" style="endArrow=none;dashed=1;html=1;dashPattern=1 3;strokeWidth=2;rounded=0;" parent="WIyWlLk6GJQsqaUBKTNV-1" edge="1">
          <mxGeometry width="50" height="50" relative="1" as="geometry">
            <mxPoint x="1800" y="2356" as="sourcePoint" />
            <mxPoint x="1820" y="76" as="targetPoint" />
          </mxGeometry>
        </mxCell>
        <mxCell id="DnuqKbJlAa81eqGboaNl-21" style="edgeStyle=orthogonalEdgeStyle;rounded=0;orthogonalLoop=1;jettySize=auto;html=1;entryX=0;entryY=0.5;entryDx=0;entryDy=0;fillColor=none;" parent="WIyWlLk6GJQsqaUBKTNV-1" source="8l_3pa4N25uh9N-MK_aW-72" target="DnuqKbJlAa81eqGboaNl-2" edge="1">
          <mxGeometry relative="1" as="geometry">
            <Array as="points">
              <mxPoint x="80" y="209" />
              <mxPoint x="80" y="765" />
            </Array>
          </mxGeometry>
        </mxCell>
        <mxCell id="DnuqKbJlAa81eqGboaNl-22" value="&lt;span style=&quot;font-size:12.0pt;font-family:&amp;quot;Liberation Serif&amp;quot;,serif;&#xa;mso-fareast-font-family:NSimSun;mso-bidi-font-family:&amp;quot;Lucida Sans&amp;quot;;mso-ansi-language:&#xa;RU;mso-fareast-language:ZH-CN;mso-bidi-language:HI&quot;&gt;1..&lt;/span&gt;&lt;span lang=&quot;EN-US&quot; style=&quot;font-size:12.0pt;font-family:&amp;quot;Liberation Serif&amp;quot;,serif;mso-fareast-font-family:&#xa;NSimSun;mso-bidi-font-family:&amp;quot;Lucida Sans&amp;quot;;mso-ansi-language:EN-US;mso-fareast-language:&#xa;ZH-CN;mso-bidi-language:HI&quot;&gt;n&lt;/span&gt;" style="text;whiteSpace=wrap;html=1;fillColor=none;" parent="WIyWlLk6GJQsqaUBKTNV-1" vertex="1">
          <mxGeometry x="352" y="733" width="60" height="40" as="geometry" />
        </mxCell>
        <mxCell id="DnuqKbJlAa81eqGboaNl-23" value="order_status" style="swimlane;fontStyle=2;align=center;verticalAlign=top;childLayout=stackLayout;horizontal=1;startSize=26;horizontalStack=0;resizeParent=1;resizeLast=0;collapsible=1;marginBottom=0;rounded=0;shadow=0;strokeWidth=1;fillColor=none;" parent="WIyWlLk6GJQsqaUBKTNV-1" vertex="1">
          <mxGeometry x="151" y="796.5" width="160" height="87" as="geometry">
            <mxRectangle x="230" y="140" width="160" height="26" as="alternateBounds" />
          </mxGeometry>
        </mxCell>
        <mxCell id="DnuqKbJlAa81eqGboaNl-24" value="id" style="text;align=left;verticalAlign=top;spacingLeft=4;spacingRight=4;overflow=hidden;rotatable=0;points=[[0,0.5],[1,0.5]];portConstraint=eastwest;fillColor=#97D077;" parent="DnuqKbJlAa81eqGboaNl-23" vertex="1">
          <mxGeometry y="26" width="160" height="26" as="geometry" />
        </mxCell>
        <mxCell id="DnuqKbJlAa81eqGboaNl-25" value="name" style="text;align=left;verticalAlign=top;spacingLeft=4;spacingRight=4;overflow=hidden;rotatable=0;points=[[0,0.5],[1,0.5]];portConstraint=eastwest;rounded=0;shadow=0;html=0;fillColor=#FFFF99;" parent="DnuqKbJlAa81eqGboaNl-23" vertex="1">
          <mxGeometry y="52" width="160" height="26" as="geometry" />
        </mxCell>
        <mxCell id="DnuqKbJlAa81eqGboaNl-30" value="&lt;span style=&quot;font-size:12.0pt;font-family:&amp;quot;Liberation Serif&amp;quot;,serif;&#xa;mso-fareast-font-family:NSimSun;mso-bidi-font-family:&amp;quot;Lucida Sans&amp;quot;;mso-ansi-language:&#xa;RU;mso-fareast-language:ZH-CN;mso-bidi-language:HI&quot;&gt;1..&lt;/span&gt;&lt;span lang=&quot;EN-US&quot; style=&quot;font-size:12.0pt;font-family:&amp;quot;Liberation Serif&amp;quot;,serif;mso-fareast-font-family:&#xa;NSimSun;mso-bidi-font-family:&amp;quot;Lucida Sans&amp;quot;;mso-ansi-language:EN-US;mso-fareast-language:&#xa;ZH-CN;mso-bidi-language:HI&quot;&gt;n&lt;/span&gt;" style="text;whiteSpace=wrap;html=1;fillColor=none;" parent="WIyWlLk6GJQsqaUBKTNV-1" vertex="1">
          <mxGeometry x="370" y="796.5" width="60" height="40" as="geometry" />
        </mxCell>
        <mxCell id="DnuqKbJlAa81eqGboaNl-31" value="&lt;span style=&quot;font-size:12.0pt;font-family:&amp;quot;Liberation Serif&amp;quot;,serif;&lt;br/&gt;mso-fareast-font-family:NSimSun;mso-bidi-font-family:&amp;quot;Lucida Sans&amp;quot;;mso-ansi-language:&lt;br/&gt;RU;mso-fareast-language:ZH-CN;mso-bidi-language:HI&quot;&gt;1&lt;/span&gt;" style="text;whiteSpace=wrap;html=1;fillColor=none;" parent="WIyWlLk6GJQsqaUBKTNV-1" vertex="1">
          <mxGeometry x="315" y="836.5" width="20" height="40" as="geometry" />
        </mxCell>
        <mxCell id="DnuqKbJlAa81eqGboaNl-32" style="edgeStyle=orthogonalEdgeStyle;rounded=0;orthogonalLoop=1;jettySize=auto;html=1;entryX=0;entryY=0.5;entryDx=0;entryDy=0;fillColor=none;" parent="WIyWlLk6GJQsqaUBKTNV-1" source="DnuqKbJlAa81eqGboaNl-24" target="DnuqKbJlAa81eqGboaNl-3" edge="1">
          <mxGeometry relative="1" as="geometry" />
        </mxCell>
        <mxCell id="DnuqKbJlAa81eqGboaNl-34" value="" style="shape=singleArrow;whiteSpace=wrap;html=1;" parent="WIyWlLk6GJQsqaUBKTNV-1" vertex="1">
          <mxGeometry x="990" y="154" width="100" height="60" as="geometry" />
        </mxCell>
        <mxCell id="DnuqKbJlAa81eqGboaNl-36" value="" style="endArrow=none;dashed=1;html=1;dashPattern=1 3;strokeWidth=2;rounded=0;" parent="WIyWlLk6GJQsqaUBKTNV-1" target="DnuqKbJlAa81eqGboaNl-35" edge="1">
          <mxGeometry width="50" height="50" relative="1" as="geometry">
            <mxPoint x="1261" y="2370" as="sourcePoint" />
            <mxPoint x="1261" y="90" as="targetPoint" />
          </mxGeometry>
        </mxCell>
        <mxCell id="DnuqKbJlAa81eqGboaNl-35" value="" style="shape=singleArrow;whiteSpace=wrap;html=1;" parent="WIyWlLk6GJQsqaUBKTNV-1" vertex="1">
          <mxGeometry x="1219" y="156" width="100" height="60" as="geometry" />
        </mxCell>
        <mxCell id="DnuqKbJlAa81eqGboaNl-39" value="" style="endArrow=none;dashed=1;html=1;dashPattern=1 3;strokeWidth=2;rounded=0;" parent="WIyWlLk6GJQsqaUBKTNV-1" target="DnuqKbJlAa81eqGboaNl-38" edge="1">
          <mxGeometry width="50" height="50" relative="1" as="geometry">
            <mxPoint x="1501" y="2370" as="sourcePoint" />
            <mxPoint x="1521" y="90" as="targetPoint" />
          </mxGeometry>
        </mxCell>
        <mxCell id="DnuqKbJlAa81eqGboaNl-38" value="" style="shape=singleArrow;whiteSpace=wrap;html=1;" parent="WIyWlLk6GJQsqaUBKTNV-1" vertex="1">
          <mxGeometry x="1460" y="159" width="100" height="60" as="geometry" />
        </mxCell>
        <mxCell id="DnuqKbJlAa81eqGboaNl-41" value="14 predifined derivations" style="shape=cylinder3;whiteSpace=wrap;html=1;boundedLbl=1;backgroundOutline=1;size=15;" parent="WIyWlLk6GJQsqaUBKTNV-1" vertex="1">
          <mxGeometry x="1570" y="104" width="180" height="134" as="geometry" />
        </mxCell>
        <mxCell id="DnuqKbJlAa81eqGboaNl-128" value="d_business_area" style="swimlane;fontStyle=2;align=center;verticalAlign=top;childLayout=stackLayout;horizontal=1;startSize=26;horizontalStack=0;resizeParent=1;resizeLast=0;collapsible=1;marginBottom=0;rounded=0;shadow=0;strokeWidth=1;fillColor=none;" parent="WIyWlLk6GJQsqaUBKTNV-1" vertex="1">
          <mxGeometry x="2580" y="1540" width="160" height="80" as="geometry">
            <mxRectangle x="230" y="140" width="160" height="26" as="alternateBounds" />
          </mxGeometry>
        </mxCell>
        <mxCell id="DnuqKbJlAa81eqGboaNl-129" value="id" style="text;align=left;verticalAlign=top;spacingLeft=4;spacingRight=4;overflow=hidden;rotatable=0;points=[[0,0.5],[1,0.5]];portConstraint=eastwest;fillColor=none;" parent="DnuqKbJlAa81eqGboaNl-128" vertex="1">
          <mxGeometry y="26" width="160" height="26" as="geometry" />
        </mxCell>
        <mxCell id="DnuqKbJlAa81eqGboaNl-130" value="name" style="text;align=left;verticalAlign=top;spacingLeft=4;spacingRight=4;overflow=hidden;rotatable=0;points=[[0,0.5],[1,0.5]];portConstraint=eastwest;rounded=0;shadow=0;html=0;fillColor=none;" parent="DnuqKbJlAa81eqGboaNl-128" vertex="1">
          <mxGeometry y="52" width="160" height="26" as="geometry" />
        </mxCell>
        <mxCell id="DnuqKbJlAa81eqGboaNl-132" value="&lt;span style=&quot;font-size:12.0pt;font-family:&amp;quot;Liberation Serif&amp;quot;,serif;&lt;br/&gt;mso-fareast-font-family:NSimSun;mso-bidi-font-family:&amp;quot;Lucida Sans&amp;quot;;mso-ansi-language:&lt;br/&gt;RU;mso-fareast-language:ZH-CN;mso-bidi-language:HI&quot;&gt;1&lt;/span&gt;" style="text;whiteSpace=wrap;html=1;fillColor=none;" parent="WIyWlLk6GJQsqaUBKTNV-1" vertex="1">
          <mxGeometry x="2546" y="1570" width="20" height="40" as="geometry" />
        </mxCell>
        <mxCell id="DnuqKbJlAa81eqGboaNl-139" value="d_currency" style="swimlane;fontStyle=2;align=center;verticalAlign=top;childLayout=stackLayout;horizontal=1;startSize=26;horizontalStack=0;resizeParent=1;resizeLast=0;collapsible=1;marginBottom=0;rounded=0;shadow=0;strokeWidth=1;fillColor=none;" parent="WIyWlLk6GJQsqaUBKTNV-1" vertex="1">
          <mxGeometry x="1870" y="989" width="160" height="91" as="geometry">
            <mxRectangle x="230" y="140" width="160" height="26" as="alternateBounds" />
          </mxGeometry>
        </mxCell>
        <mxCell id="DnuqKbJlAa81eqGboaNl-140" value="id" style="text;align=left;verticalAlign=top;spacingLeft=4;spacingRight=4;overflow=hidden;rotatable=0;points=[[0,0.5],[1,0.5]];portConstraint=eastwest;fillColor=none;" parent="DnuqKbJlAa81eqGboaNl-139" vertex="1">
          <mxGeometry y="26" width="160" height="26" as="geometry" />
        </mxCell>
        <mxCell id="DnuqKbJlAa81eqGboaNl-141" value="name" style="text;align=left;verticalAlign=top;spacingLeft=4;spacingRight=4;overflow=hidden;rotatable=0;points=[[0,0.5],[1,0.5]];portConstraint=eastwest;rounded=0;shadow=0;html=0;fillColor=none;" parent="DnuqKbJlAa81eqGboaNl-139" vertex="1">
          <mxGeometry y="52" width="160" height="26" as="geometry" />
        </mxCell>
        <mxCell id="DnuqKbJlAa81eqGboaNl-143" value="&lt;span style=&quot;font-size:12.0pt;font-family:&amp;quot;Liberation Serif&amp;quot;,serif;&lt;br/&gt;mso-fareast-font-family:NSimSun;mso-bidi-font-family:&amp;quot;Lucida Sans&amp;quot;;mso-ansi-language:&lt;br/&gt;RU;mso-fareast-language:ZH-CN;mso-bidi-language:HI&quot;&gt;1&lt;/span&gt;" style="text;whiteSpace=wrap;html=1;fillColor=none;" parent="WIyWlLk6GJQsqaUBKTNV-1" vertex="1">
          <mxGeometry x="2040" y="995" width="20" height="40" as="geometry" />
        </mxCell>
        <mxCell id="DnuqKbJlAa81eqGboaNl-144" value="d_date" style="swimlane;fontStyle=2;align=center;verticalAlign=top;childLayout=stackLayout;horizontal=1;startSize=26;horizontalStack=0;resizeParent=1;resizeLast=0;collapsible=1;marginBottom=0;rounded=0;shadow=0;strokeWidth=1;fillColor=none;" parent="WIyWlLk6GJQsqaUBKTNV-1" vertex="1">
          <mxGeometry x="1870" y="701.5" width="160" height="158.5" as="geometry">
            <mxRectangle x="230" y="140" width="160" height="26" as="alternateBounds" />
          </mxGeometry>
        </mxCell>
        <mxCell id="DnuqKbJlAa81eqGboaNl-145" value="date" style="text;align=left;verticalAlign=top;spacingLeft=4;spacingRight=4;overflow=hidden;rotatable=0;points=[[0,0.5],[1,0.5]];portConstraint=eastwest;fillColor=none;" parent="DnuqKbJlAa81eqGboaNl-144" vertex="1">
          <mxGeometry y="26" width="160" height="26" as="geometry" />
        </mxCell>
        <mxCell id="DnuqKbJlAa81eqGboaNl-146" value="year" style="text;align=left;verticalAlign=top;spacingLeft=4;spacingRight=4;overflow=hidden;rotatable=0;points=[[0,0.5],[1,0.5]];portConstraint=eastwest;rounded=0;shadow=0;html=0;fillColor=none;" parent="DnuqKbJlAa81eqGboaNl-144" vertex="1">
          <mxGeometry y="52" width="160" height="26" as="geometry" />
        </mxCell>
        <mxCell id="DnuqKbJlAa81eqGboaNl-147" value="month" style="text;align=left;verticalAlign=top;spacingLeft=4;spacingRight=4;overflow=hidden;rotatable=0;points=[[0,0.5],[1,0.5]];portConstraint=eastwest;rounded=0;shadow=0;html=0;fillColor=none;" parent="DnuqKbJlAa81eqGboaNl-144" vertex="1">
          <mxGeometry y="78" width="160" height="26" as="geometry" />
        </mxCell>
        <mxCell id="DnuqKbJlAa81eqGboaNl-148" value="week" style="text;align=left;verticalAlign=top;spacingLeft=4;spacingRight=4;overflow=hidden;rotatable=0;points=[[0,0.5],[1,0.5]];portConstraint=eastwest;rounded=0;shadow=0;html=0;fillColor=none;" parent="DnuqKbJlAa81eqGboaNl-144" vertex="1">
          <mxGeometry y="104" width="160" height="26" as="geometry" />
        </mxCell>
        <mxCell id="DnuqKbJlAa81eqGboaNl-150" value="day" style="text;align=left;verticalAlign=top;spacingLeft=4;spacingRight=4;overflow=hidden;rotatable=0;points=[[0,0.5],[1,0.5]];portConstraint=eastwest;rounded=0;shadow=0;html=0;fillColor=none;" parent="DnuqKbJlAa81eqGboaNl-144" vertex="1">
          <mxGeometry y="130" width="160" height="26" as="geometry" />
        </mxCell>
        <mxCell id="DnuqKbJlAa81eqGboaNl-151" value="&lt;span style=&quot;font-size:12.0pt;font-family:&amp;quot;Liberation Serif&amp;quot;,serif;&lt;br/&gt;mso-fareast-font-family:NSimSun;mso-bidi-font-family:&amp;quot;Lucida Sans&amp;quot;;mso-ansi-language:&lt;br/&gt;RU;mso-fareast-language:ZH-CN;mso-bidi-language:HI&quot;&gt;1&lt;/span&gt;" style="text;whiteSpace=wrap;html=1;fillColor=none;" parent="WIyWlLk6GJQsqaUBKTNV-1" vertex="1">
          <mxGeometry x="1850" y="740" width="20" height="40" as="geometry" />
        </mxCell>
        <mxCell id="DnuqKbJlAa81eqGboaNl-153" value="f_goods_sales" style="swimlane;fontStyle=2;align=center;verticalAlign=top;childLayout=stackLayout;horizontal=1;startSize=26;horizontalStack=0;resizeParent=1;resizeLast=0;collapsible=1;marginBottom=0;rounded=0;shadow=0;strokeWidth=1;fillColor=none;" parent="WIyWlLk6GJQsqaUBKTNV-1" vertex="1">
          <mxGeometry x="2250" y="229" width="160" height="241" as="geometry">
            <mxRectangle x="230" y="140" width="160" height="26" as="alternateBounds" />
          </mxGeometry>
        </mxCell>
        <mxCell id="DnuqKbJlAa81eqGboaNl-154" value="good_id" style="text;align=left;verticalAlign=top;spacingLeft=4;spacingRight=4;overflow=hidden;rotatable=0;points=[[0,0.5],[1,0.5]];portConstraint=eastwest;fillColor=none;" parent="DnuqKbJlAa81eqGboaNl-153" vertex="1">
          <mxGeometry y="26" width="160" height="26" as="geometry" />
        </mxCell>
        <mxCell id="DnuqKbJlAa81eqGboaNl-156" value="good_count" style="text;align=left;verticalAlign=top;spacingLeft=4;spacingRight=4;overflow=hidden;rotatable=0;points=[[0,0.5],[1,0.5]];portConstraint=eastwest;fillColor=none;" parent="DnuqKbJlAa81eqGboaNl-153" vertex="1">
          <mxGeometry y="52" width="160" height="26" as="geometry" />
        </mxCell>
        <mxCell id="DnuqKbJlAa81eqGboaNl-157" value="date_created" style="text;align=left;verticalAlign=top;spacingLeft=4;spacingRight=4;overflow=hidden;rotatable=0;points=[[0,0.5],[1,0.5]];portConstraint=eastwest;fillColor=none;" parent="DnuqKbJlAa81eqGboaNl-153" vertex="1">
          <mxGeometry y="78" width="160" height="26" as="geometry" />
        </mxCell>
        <mxCell id="DnuqKbJlAa81eqGboaNl-220" value="date_delivered" style="text;align=left;verticalAlign=top;spacingLeft=4;spacingRight=4;overflow=hidden;rotatable=0;points=[[0,0.5],[1,0.5]];portConstraint=eastwest;fillColor=none;" parent="DnuqKbJlAa81eqGboaNl-153" vertex="1">
          <mxGeometry y="104" width="160" height="26" as="geometry" />
        </mxCell>
        <mxCell id="DnuqKbJlAa81eqGboaNl-158" value="currency_id" style="text;align=left;verticalAlign=top;spacingLeft=4;spacingRight=4;overflow=hidden;rotatable=0;points=[[0,0.5],[1,0.5]];portConstraint=eastwest;rounded=0;shadow=0;html=0;fillColor=none;" parent="DnuqKbJlAa81eqGboaNl-153" vertex="1">
          <mxGeometry y="130" width="160" height="26" as="geometry" />
        </mxCell>
        <mxCell id="DnuqKbJlAa81eqGboaNl-159" value="good_cost_original" style="text;align=left;verticalAlign=top;spacingLeft=4;spacingRight=4;overflow=hidden;rotatable=0;points=[[0,0.5],[1,0.5]];portConstraint=eastwest;rounded=0;shadow=0;html=0;fillColor=none;" parent="DnuqKbJlAa81eqGboaNl-153" vertex="1">
          <mxGeometry y="156" width="160" height="26" as="geometry" />
        </mxCell>
        <mxCell id="DnuqKbJlAa81eqGboaNl-160" value="good_cost_rur" style="text;align=left;verticalAlign=top;spacingLeft=4;spacingRight=4;overflow=hidden;rotatable=0;points=[[0,0.5],[1,0.5]];portConstraint=eastwest;rounded=0;shadow=0;html=0;fillColor=none;" parent="DnuqKbJlAa81eqGboaNl-153" vertex="1">
          <mxGeometry y="182" width="160" height="26" as="geometry" />
        </mxCell>
        <mxCell id="DnuqKbJlAa81eqGboaNl-161" value="delivered_warehouse_id" style="text;align=left;verticalAlign=top;spacingLeft=4;spacingRight=4;overflow=hidden;rotatable=0;points=[[0,0.5],[1,0.5]];portConstraint=eastwest;rounded=0;shadow=0;html=0;fillColor=none;" parent="DnuqKbJlAa81eqGboaNl-153" vertex="1">
          <mxGeometry y="208" width="160" height="26" as="geometry" />
        </mxCell>
        <mxCell id="DnuqKbJlAa81eqGboaNl-163" value="f_warehouse_loading" style="swimlane;fontStyle=2;align=center;verticalAlign=top;childLayout=stackLayout;horizontal=1;startSize=26;horizontalStack=0;resizeParent=1;resizeLast=0;collapsible=1;marginBottom=0;rounded=0;shadow=0;strokeWidth=1;fillColor=none;" parent="WIyWlLk6GJQsqaUBKTNV-1" vertex="1">
          <mxGeometry x="2250" y="792" width="160" height="218" as="geometry">
            <mxRectangle x="230" y="140" width="160" height="26" as="alternateBounds" />
          </mxGeometry>
        </mxCell>
        <mxCell id="DnuqKbJlAa81eqGboaNl-164" value="warehouse_id" style="text;align=left;verticalAlign=top;spacingLeft=4;spacingRight=4;overflow=hidden;rotatable=0;points=[[0,0.5],[1,0.5]];portConstraint=eastwest;rounded=0;shadow=0;html=0;fillColor=none;" parent="DnuqKbJlAa81eqGboaNl-163" vertex="1">
          <mxGeometry y="26" width="160" height="26" as="geometry" />
        </mxCell>
        <mxCell id="DnuqKbJlAa81eqGboaNl-165" value="date" style="text;align=left;verticalAlign=top;spacingLeft=4;spacingRight=4;overflow=hidden;rotatable=0;points=[[0,0.5],[1,0.5]];portConstraint=eastwest;fillColor=none;" parent="DnuqKbJlAa81eqGboaNl-163" vertex="1">
          <mxGeometry y="52" width="160" height="26" as="geometry" />
        </mxCell>
        <mxCell id="DnuqKbJlAa81eqGboaNl-166" value="good_count" style="text;align=left;verticalAlign=top;spacingLeft=4;spacingRight=4;overflow=hidden;rotatable=0;points=[[0,0.5],[1,0.5]];portConstraint=eastwest;fillColor=none;" parent="DnuqKbJlAa81eqGboaNl-163" vertex="1">
          <mxGeometry y="78" width="160" height="26" as="geometry" />
        </mxCell>
        <mxCell id="DnuqKbJlAa81eqGboaNl-167" value="good_weight" style="text;align=left;verticalAlign=top;spacingLeft=4;spacingRight=4;overflow=hidden;rotatable=0;points=[[0,0.5],[1,0.5]];portConstraint=eastwest;rounded=0;shadow=0;html=0;fillColor=none;" parent="DnuqKbJlAa81eqGboaNl-163" vertex="1">
          <mxGeometry y="104" width="160" height="26" as="geometry" />
        </mxCell>
        <mxCell id="DnuqKbJlAa81eqGboaNl-180" value="max_loading_volume" style="text;align=left;verticalAlign=top;spacingLeft=4;spacingRight=4;overflow=hidden;rotatable=0;points=[[0,0.5],[1,0.5]];portConstraint=eastwest;rounded=0;shadow=0;html=0;fillColor=none;" parent="DnuqKbJlAa81eqGboaNl-163" vertex="1">
          <mxGeometry y="130" width="160" height="26" as="geometry" />
        </mxCell>
        <mxCell id="DnuqKbJlAa81eqGboaNl-179" value="max_loading_weight" style="text;align=left;verticalAlign=top;spacingLeft=4;spacingRight=4;overflow=hidden;rotatable=0;points=[[0,0.5],[1,0.5]];portConstraint=eastwest;rounded=0;shadow=0;html=0;fillColor=none;" parent="DnuqKbJlAa81eqGboaNl-163" vertex="1">
          <mxGeometry y="156" width="160" height="26" as="geometry" />
        </mxCell>
        <mxCell id="DnuqKbJlAa81eqGboaNl-168" value="good_volume" style="text;align=left;verticalAlign=top;spacingLeft=4;spacingRight=4;overflow=hidden;rotatable=0;points=[[0,0.5],[1,0.5]];portConstraint=eastwest;rounded=0;shadow=0;html=0;fillColor=none;" parent="DnuqKbJlAa81eqGboaNl-163" vertex="1">
          <mxGeometry y="182" width="160" height="34" as="geometry" />
        </mxCell>
        <mxCell id="DnuqKbJlAa81eqGboaNl-169" value="f_order_detalization" style="swimlane;fontStyle=2;align=center;verticalAlign=top;childLayout=stackLayout;horizontal=1;startSize=26;horizontalStack=0;resizeParent=1;resizeLast=0;collapsible=1;marginBottom=0;rounded=0;shadow=0;strokeWidth=1;fillColor=none;" parent="WIyWlLk6GJQsqaUBKTNV-1" vertex="1">
          <mxGeometry x="2250" y="1196" width="160" height="470" as="geometry">
            <mxRectangle x="230" y="140" width="160" height="26" as="alternateBounds" />
          </mxGeometry>
        </mxCell>
        <mxCell id="DnuqKbJlAa81eqGboaNl-171" value="order_id" style="text;align=left;verticalAlign=top;spacingLeft=4;spacingRight=4;overflow=hidden;rotatable=0;points=[[0,0.5],[1,0.5]];portConstraint=eastwest;fillColor=none;" parent="DnuqKbJlAa81eqGboaNl-169" vertex="1">
          <mxGeometry y="26" width="160" height="26" as="geometry" />
        </mxCell>
        <mxCell id="DnuqKbJlAa81eqGboaNl-173" value="date_created" style="text;align=left;verticalAlign=top;spacingLeft=4;spacingRight=4;overflow=hidden;rotatable=0;points=[[0,0.5],[1,0.5]];portConstraint=eastwest;fillColor=none;" parent="DnuqKbJlAa81eqGboaNl-169" vertex="1">
          <mxGeometry y="52" width="160" height="26" as="geometry" />
        </mxCell>
        <mxCell id="DnuqKbJlAa81eqGboaNl-219" value="date_delivered" style="text;align=left;verticalAlign=top;spacingLeft=4;spacingRight=4;overflow=hidden;rotatable=0;points=[[0,0.5],[1,0.5]];portConstraint=eastwest;fillColor=none;" parent="DnuqKbJlAa81eqGboaNl-169" vertex="1">
          <mxGeometry y="78" width="160" height="26" as="geometry" />
        </mxCell>
        <mxCell id="DnuqKbJlAa81eqGboaNl-172" value="good_count" style="text;align=left;verticalAlign=top;spacingLeft=4;spacingRight=4;overflow=hidden;rotatable=0;points=[[0,0.5],[1,0.5]];portConstraint=eastwest;fillColor=none;" parent="DnuqKbJlAa81eqGboaNl-169" vertex="1">
          <mxGeometry y="104" width="160" height="26" as="geometry" />
        </mxCell>
        <mxCell id="DnuqKbJlAa81eqGboaNl-174" value="order_weight" style="text;align=left;verticalAlign=top;spacingLeft=4;spacingRight=4;overflow=hidden;rotatable=0;points=[[0,0.5],[1,0.5]];portConstraint=eastwest;rounded=0;shadow=0;html=0;fillColor=none;" parent="DnuqKbJlAa81eqGboaNl-169" vertex="1">
          <mxGeometry y="130" width="160" height="26" as="geometry" />
        </mxCell>
        <mxCell id="DnuqKbJlAa81eqGboaNl-175" value="order_cost_original" style="text;align=left;verticalAlign=top;spacingLeft=4;spacingRight=4;overflow=hidden;rotatable=0;points=[[0,0.5],[1,0.5]];portConstraint=eastwest;rounded=0;shadow=0;html=0;fillColor=none;" parent="DnuqKbJlAa81eqGboaNl-169" vertex="1">
          <mxGeometry y="156" width="160" height="26" as="geometry" />
        </mxCell>
        <mxCell id="DnuqKbJlAa81eqGboaNl-176" value="order_cost_rur" style="text;align=left;verticalAlign=top;spacingLeft=4;spacingRight=4;overflow=hidden;rotatable=0;points=[[0,0.5],[1,0.5]];portConstraint=eastwest;rounded=0;shadow=0;html=0;fillColor=none;" parent="DnuqKbJlAa81eqGboaNl-169" vertex="1">
          <mxGeometry y="182" width="160" height="26" as="geometry" />
        </mxCell>
        <mxCell id="DnuqKbJlAa81eqGboaNl-221" value="currency_id" style="text;align=left;verticalAlign=top;spacingLeft=4;spacingRight=4;overflow=hidden;rotatable=0;points=[[0,0.5],[1,0.5]];portConstraint=eastwest;rounded=0;shadow=0;html=0;fillColor=none;" parent="DnuqKbJlAa81eqGboaNl-169" vertex="1">
          <mxGeometry y="208" width="160" height="26" as="geometry" />
        </mxCell>
        <mxCell id="DnuqKbJlAa81eqGboaNl-177" value="current_warehouse_id" style="text;align=left;verticalAlign=top;spacingLeft=4;spacingRight=4;overflow=hidden;rotatable=0;points=[[0,0.5],[1,0.5]];portConstraint=eastwest;rounded=0;shadow=0;html=0;fillColor=none;" parent="DnuqKbJlAa81eqGboaNl-169" vertex="1">
          <mxGeometry y="234" width="160" height="26" as="geometry" />
        </mxCell>
        <mxCell id="DnuqKbJlAa81eqGboaNl-178" value="current_status_id" style="text;align=left;verticalAlign=top;spacingLeft=4;spacingRight=4;overflow=hidden;rotatable=0;points=[[0,0.5],[1,0.5]];portConstraint=eastwest;fillColor=none;" parent="DnuqKbJlAa81eqGboaNl-169" vertex="1">
          <mxGeometry y="260" width="160" height="30" as="geometry" />
        </mxCell>
        <mxCell id="DnuqKbJlAa81eqGboaNl-205" value="has_delay" style="text;align=left;verticalAlign=top;spacingLeft=4;spacingRight=4;overflow=hidden;rotatable=0;points=[[0,0.5],[1,0.5]];portConstraint=eastwest;fillColor=none;" parent="DnuqKbJlAa81eqGboaNl-169" vertex="1">
          <mxGeometry y="290" width="160" height="30" as="geometry" />
        </mxCell>
        <mxCell id="DnuqKbJlAa81eqGboaNl-206" value="sender_city_id" style="text;align=left;verticalAlign=top;spacingLeft=4;spacingRight=4;overflow=hidden;rotatable=0;points=[[0,0.5],[1,0.5]];portConstraint=eastwest;fillColor=none;" parent="DnuqKbJlAa81eqGboaNl-169" vertex="1">
          <mxGeometry y="320" width="160" height="30" as="geometry" />
        </mxCell>
        <mxCell id="DnuqKbJlAa81eqGboaNl-207" value="receiver_city_id" style="text;align=left;verticalAlign=top;spacingLeft=4;spacingRight=4;overflow=hidden;rotatable=0;points=[[0,0.5],[1,0.5]];portConstraint=eastwest;fillColor=none;" parent="DnuqKbJlAa81eqGboaNl-169" vertex="1">
          <mxGeometry y="350" width="160" height="30" as="geometry" />
        </mxCell>
        <mxCell id="DnuqKbJlAa81eqGboaNl-208" value="business_area_id" style="text;align=left;verticalAlign=top;spacingLeft=4;spacingRight=4;overflow=hidden;rotatable=0;points=[[0,0.5],[1,0.5]];portConstraint=eastwest;fillColor=none;" parent="DnuqKbJlAa81eqGboaNl-169" vertex="1">
          <mxGeometry y="380" width="160" height="30" as="geometry" />
        </mxCell>
        <mxCell id="DnuqKbJlAa81eqGboaNl-212" value="payer_type_id" style="text;align=left;verticalAlign=top;spacingLeft=4;spacingRight=4;overflow=hidden;rotatable=0;points=[[0,0.5],[1,0.5]];portConstraint=eastwest;fillColor=none;" parent="DnuqKbJlAa81eqGboaNl-169" vertex="1">
          <mxGeometry y="410" width="160" height="30" as="geometry" />
        </mxCell>
        <mxCell id="DnuqKbJlAa81eqGboaNl-235" value="has_problem_address" style="text;align=left;verticalAlign=top;spacingLeft=4;spacingRight=4;overflow=hidden;rotatable=0;points=[[0,0.5],[1,0.5]];portConstraint=eastwest;fillColor=none;" parent="DnuqKbJlAa81eqGboaNl-169" vertex="1">
          <mxGeometry y="440" width="160" height="30" as="geometry" />
        </mxCell>
        <mxCell id="DnuqKbJlAa81eqGboaNl-181" value="Warehouse_params" style="swimlane;fontStyle=2;align=center;verticalAlign=top;childLayout=stackLayout;horizontal=1;startSize=26;horizontalStack=0;resizeParent=1;resizeLast=0;collapsible=1;marginBottom=0;rounded=0;shadow=0;strokeWidth=1;fillColor=none;" parent="WIyWlLk6GJQsqaUBKTNV-1" vertex="1">
          <mxGeometry x="406" y="1059" width="160" height="156" as="geometry">
            <mxRectangle x="230" y="140" width="160" height="26" as="alternateBounds" />
          </mxGeometry>
        </mxCell>
        <mxCell id="6-XW60zN4T-aBIhjUH3o-0" value="id" style="text;align=left;verticalAlign=top;spacingLeft=4;spacingRight=4;overflow=hidden;rotatable=0;points=[[0,0.5],[1,0.5]];portConstraint=eastwest;fillColor=#97D077;" parent="DnuqKbJlAa81eqGboaNl-181" vertex="1">
          <mxGeometry y="26" width="160" height="26" as="geometry" />
        </mxCell>
        <mxCell id="DnuqKbJlAa81eqGboaNl-182" value="warehouse_id" style="text;align=left;verticalAlign=top;spacingLeft=4;spacingRight=4;overflow=hidden;rotatable=0;points=[[0,0.5],[1,0.5]];portConstraint=eastwest;fillColor=#99FFFF;" parent="DnuqKbJlAa81eqGboaNl-181" vertex="1">
          <mxGeometry y="52" width="160" height="26" as="geometry" />
        </mxCell>
        <mxCell id="DnuqKbJlAa81eqGboaNl-184" value="address_id" style="text;align=left;verticalAlign=top;spacingLeft=4;spacingRight=4;overflow=hidden;rotatable=0;points=[[0,0.5],[1,0.5]];portConstraint=eastwest;rounded=0;shadow=0;html=0;fillColor=#99FFFF;" parent="DnuqKbJlAa81eqGboaNl-181" vertex="1">
          <mxGeometry y="78" width="160" height="26" as="geometry" />
        </mxCell>
        <mxCell id="DnuqKbJlAa81eqGboaNl-185" value="max_loading_weight" style="text;align=left;verticalAlign=top;spacingLeft=4;spacingRight=4;overflow=hidden;rotatable=0;points=[[0,0.5],[1,0.5]];portConstraint=eastwest;rounded=0;shadow=0;html=0;fillColor=#FFFF99;" parent="DnuqKbJlAa81eqGboaNl-181" vertex="1">
          <mxGeometry y="104" width="160" height="26" as="geometry" />
        </mxCell>
        <mxCell id="DnuqKbJlAa81eqGboaNl-186" value="max_loading_volume" style="text;align=left;verticalAlign=top;spacingLeft=4;spacingRight=4;overflow=hidden;rotatable=0;points=[[0,0.5],[1,0.5]];portConstraint=eastwest;rounded=0;shadow=0;html=0;fillColor=#FFFF99;" parent="DnuqKbJlAa81eqGboaNl-181" vertex="1">
          <mxGeometry y="130" width="160" height="26" as="geometry" />
        </mxCell>
        <mxCell id="DnuqKbJlAa81eqGboaNl-187" style="edgeStyle=orthogonalEdgeStyle;rounded=0;orthogonalLoop=1;jettySize=auto;html=1;exitX=1;exitY=0.5;exitDx=0;exitDy=0;fillColor=none;" parent="WIyWlLk6GJQsqaUBKTNV-1" source="8l_3pa4N25uh9N-MK_aW-90" edge="1">
          <mxGeometry relative="1" as="geometry">
            <Array as="points">
              <mxPoint x="620" y="923" />
              <mxPoint x="620" y="1120" />
              <mxPoint x="566" y="1120" />
            </Array>
            <mxPoint x="576" y="933" as="sourcePoint" />
            <mxPoint x="566" y="1120" as="targetPoint" />
          </mxGeometry>
        </mxCell>
        <mxCell id="DnuqKbJlAa81eqGboaNl-189" value="&lt;span style=&quot;font-size:12.0pt;font-family:&amp;quot;Liberation Serif&amp;quot;,serif;&#xa;mso-fareast-font-family:NSimSun;mso-bidi-font-family:&amp;quot;Lucida Sans&amp;quot;;mso-ansi-language:&#xa;RU;mso-fareast-language:ZH-CN;mso-bidi-language:HI&quot;&gt;1..&lt;/span&gt;&lt;span lang=&quot;EN-US&quot; style=&quot;font-size:12.0pt;font-family:&amp;quot;Liberation Serif&amp;quot;,serif;mso-fareast-font-family:&#xa;NSimSun;mso-bidi-font-family:&amp;quot;Lucida Sans&amp;quot;;mso-ansi-language:EN-US;mso-fareast-language:&#xa;ZH-CN;mso-bidi-language:HI&quot;&gt;n&lt;/span&gt;" style="text;whiteSpace=wrap;html=1;fillColor=none;" parent="WIyWlLk6GJQsqaUBKTNV-1" vertex="1">
          <mxGeometry x="570" y="1130" width="60" height="40" as="geometry" />
        </mxCell>
        <mxCell id="DnuqKbJlAa81eqGboaNl-190" value="Client_address" style="swimlane;fontStyle=2;align=center;verticalAlign=top;childLayout=stackLayout;horizontal=1;startSize=26;horizontalStack=0;resizeParent=1;resizeLast=0;collapsible=1;marginBottom=0;rounded=0;shadow=0;strokeWidth=1;fillColor=none;" parent="WIyWlLk6GJQsqaUBKTNV-1" vertex="1">
          <mxGeometry x="150" y="254" width="160" height="156" as="geometry">
            <mxRectangle x="230" y="140" width="160" height="26" as="alternateBounds" />
          </mxGeometry>
        </mxCell>
        <mxCell id="-JFV0slSvM1gxQrjLwDL-6" value="id" style="text;align=left;verticalAlign=top;spacingLeft=4;spacingRight=4;overflow=hidden;rotatable=0;points=[[0,0.5],[1,0.5]];portConstraint=eastwest;fillColor=#97D077;" parent="DnuqKbJlAa81eqGboaNl-190" vertex="1">
          <mxGeometry y="26" width="160" height="26" as="geometry" />
        </mxCell>
        <mxCell id="DnuqKbJlAa81eqGboaNl-192" value="city_id" style="text;align=left;verticalAlign=top;spacingLeft=4;spacingRight=4;overflow=hidden;rotatable=0;points=[[0,0.5],[1,0.5]];portConstraint=eastwest;rounded=0;shadow=0;html=0;fillColor=#99FFFF;" parent="DnuqKbJlAa81eqGboaNl-190" vertex="1">
          <mxGeometry y="52" width="160" height="26" as="geometry" />
        </mxCell>
        <mxCell id="DnuqKbJlAa81eqGboaNl-193" value="street" style="text;align=left;verticalAlign=top;spacingLeft=4;spacingRight=4;overflow=hidden;rotatable=0;points=[[0,0.5],[1,0.5]];portConstraint=eastwest;rounded=0;shadow=0;html=0;fillColor=#FFFF99;" parent="DnuqKbJlAa81eqGboaNl-190" vertex="1">
          <mxGeometry y="78" width="160" height="26" as="geometry" />
        </mxCell>
        <mxCell id="DnuqKbJlAa81eqGboaNl-194" value="house" style="text;align=left;verticalAlign=top;spacingLeft=4;spacingRight=4;overflow=hidden;rotatable=0;points=[[0,0.5],[1,0.5]];portConstraint=eastwest;rounded=0;shadow=0;html=0;fillColor=#FFFF99;" parent="DnuqKbJlAa81eqGboaNl-190" vertex="1">
          <mxGeometry y="104" width="160" height="26" as="geometry" />
        </mxCell>
        <mxCell id="DnuqKbJlAa81eqGboaNl-201" value="is_valid" style="text;align=left;verticalAlign=top;spacingLeft=4;spacingRight=4;overflow=hidden;rotatable=0;points=[[0,0.5],[1,0.5]];portConstraint=eastwest;rounded=0;shadow=0;html=0;fillColor=#FFFF99;" parent="DnuqKbJlAa81eqGboaNl-190" vertex="1">
          <mxGeometry y="130" width="160" height="26" as="geometry" />
        </mxCell>
        <mxCell id="DnuqKbJlAa81eqGboaNl-209" value="d_client_type" style="swimlane;fontStyle=2;align=center;verticalAlign=top;childLayout=stackLayout;horizontal=1;startSize=26;horizontalStack=0;resizeParent=1;resizeLast=0;collapsible=1;marginBottom=0;rounded=0;shadow=0;strokeWidth=1;fillColor=none;" parent="WIyWlLk6GJQsqaUBKTNV-1" vertex="1">
          <mxGeometry x="1870" y="1470" width="160" height="80" as="geometry">
            <mxRectangle x="230" y="140" width="160" height="26" as="alternateBounds" />
          </mxGeometry>
        </mxCell>
        <mxCell id="DnuqKbJlAa81eqGboaNl-210" value="id" style="text;align=left;verticalAlign=top;spacingLeft=4;spacingRight=4;overflow=hidden;rotatable=0;points=[[0,0.5],[1,0.5]];portConstraint=eastwest;fillColor=none;" parent="DnuqKbJlAa81eqGboaNl-209" vertex="1">
          <mxGeometry y="26" width="160" height="26" as="geometry" />
        </mxCell>
        <mxCell id="DnuqKbJlAa81eqGboaNl-211" value="name" style="text;align=left;verticalAlign=top;spacingLeft=4;spacingRight=4;overflow=hidden;rotatable=0;points=[[0,0.5],[1,0.5]];portConstraint=eastwest;rounded=0;shadow=0;html=0;fillColor=none;" parent="DnuqKbJlAa81eqGboaNl-209" vertex="1">
          <mxGeometry y="52" width="160" height="26" as="geometry" />
        </mxCell>
        <mxCell id="DnuqKbJlAa81eqGboaNl-215" value="d_geography_structure" style="swimlane;fontStyle=2;align=center;verticalAlign=top;childLayout=stackLayout;horizontal=1;startSize=26;horizontalStack=0;resizeParent=1;resizeLast=0;collapsible=1;marginBottom=0;rounded=0;shadow=0;strokeWidth=1;fillColor=none;" parent="WIyWlLk6GJQsqaUBKTNV-1" vertex="1">
          <mxGeometry x="1870" y="1316" width="160" height="110" as="geometry">
            <mxRectangle x="230" y="140" width="160" height="26" as="alternateBounds" />
          </mxGeometry>
        </mxCell>
        <mxCell id="DnuqKbJlAa81eqGboaNl-217" value="city_id" style="text;align=left;verticalAlign=top;spacingLeft=4;spacingRight=4;overflow=hidden;rotatable=0;points=[[0,0.5],[1,0.5]];portConstraint=eastwest;rounded=0;shadow=0;html=0;fillColor=none;" parent="DnuqKbJlAa81eqGboaNl-215" vertex="1">
          <mxGeometry y="26" width="160" height="26" as="geometry" />
        </mxCell>
        <mxCell id="DnuqKbJlAa81eqGboaNl-218" value="city_name" style="text;align=left;verticalAlign=top;spacingLeft=4;spacingRight=4;overflow=hidden;rotatable=0;points=[[0,0.5],[1,0.5]];portConstraint=eastwest;rounded=0;shadow=0;html=0;fillColor=none;" parent="DnuqKbJlAa81eqGboaNl-215" vertex="1">
          <mxGeometry y="52" width="160" height="26" as="geometry" />
        </mxCell>
        <mxCell id="DnuqKbJlAa81eqGboaNl-236" value="country_name" style="text;align=left;verticalAlign=top;spacingLeft=4;spacingRight=4;overflow=hidden;rotatable=0;points=[[0,0.5],[1,0.5]];portConstraint=eastwest;rounded=0;shadow=0;html=0;fillColor=none;" parent="DnuqKbJlAa81eqGboaNl-215" vertex="1">
          <mxGeometry y="78" width="160" height="26" as="geometry" />
        </mxCell>
        <mxCell id="DnuqKbJlAa81eqGboaNl-222" style="edgeStyle=orthogonalEdgeStyle;rounded=0;orthogonalLoop=1;jettySize=auto;html=1;entryX=0;entryY=0.5;entryDx=0;entryDy=0;fillColor=none;" parent="WIyWlLk6GJQsqaUBKTNV-1" source="DnuqKbJlAa81eqGboaNl-152" target="DnuqKbJlAa81eqGboaNl-161" edge="1">
          <mxGeometry relative="1" as="geometry">
            <Array as="points">
              <mxPoint x="2180" y="562" />
              <mxPoint x="2180" y="450" />
            </Array>
          </mxGeometry>
        </mxCell>
        <mxCell id="DnuqKbJlAa81eqGboaNl-223" style="edgeStyle=orthogonalEdgeStyle;rounded=0;orthogonalLoop=1;jettySize=auto;html=1;entryX=0;entryY=0.5;entryDx=0;entryDy=0;fillColor=none;" parent="WIyWlLk6GJQsqaUBKTNV-1" source="DnuqKbJlAa81eqGboaNl-145" target="DnuqKbJlAa81eqGboaNl-157" edge="1">
          <mxGeometry relative="1" as="geometry">
            <Array as="points">
              <mxPoint x="1850" y="741" />
              <mxPoint x="1850" y="320" />
            </Array>
          </mxGeometry>
        </mxCell>
        <mxCell id="DnuqKbJlAa81eqGboaNl-224" style="edgeStyle=orthogonalEdgeStyle;rounded=0;orthogonalLoop=1;jettySize=auto;html=1;entryX=0;entryY=0.5;entryDx=0;entryDy=0;fillColor=none;" parent="WIyWlLk6GJQsqaUBKTNV-1" source="DnuqKbJlAa81eqGboaNl-145" target="DnuqKbJlAa81eqGboaNl-220" edge="1">
          <mxGeometry relative="1" as="geometry">
            <Array as="points">
              <mxPoint x="1850" y="741" />
              <mxPoint x="1850" y="346" />
            </Array>
          </mxGeometry>
        </mxCell>
        <mxCell id="DnuqKbJlAa81eqGboaNl-225" style="edgeStyle=orthogonalEdgeStyle;rounded=0;orthogonalLoop=1;jettySize=auto;html=1;entryX=0;entryY=0.5;entryDx=0;entryDy=0;fillColor=none;" parent="WIyWlLk6GJQsqaUBKTNV-1" source="DnuqKbJlAa81eqGboaNl-140" target="DnuqKbJlAa81eqGboaNl-158" edge="1">
          <mxGeometry relative="1" as="geometry">
            <Array as="points">
              <mxPoint x="2110" y="1028" />
              <mxPoint x="2110" y="372" />
            </Array>
          </mxGeometry>
        </mxCell>
        <mxCell id="DnuqKbJlAa81eqGboaNl-226" value="&lt;span style=&quot;font-size:12.0pt;font-family:&amp;quot;Liberation Serif&amp;quot;,serif;&#xa;mso-fareast-font-family:NSimSun;mso-bidi-font-family:&amp;quot;Lucida Sans&amp;quot;;mso-ansi-language:&#xa;RU;mso-fareast-language:ZH-CN;mso-bidi-language:HI&quot;&gt;1..&lt;/span&gt;&lt;span lang=&quot;EN-US&quot; style=&quot;font-size:12.0pt;font-family:&amp;quot;Liberation Serif&amp;quot;,serif;mso-fareast-font-family:&#xa;NSimSun;mso-bidi-font-family:&amp;quot;Lucida Sans&amp;quot;;mso-ansi-language:EN-US;mso-fareast-language:&#xa;ZH-CN;mso-bidi-language:HI&quot;&gt;n&lt;/span&gt;" style="text;whiteSpace=wrap;html=1;fillColor=none;" parent="WIyWlLk6GJQsqaUBKTNV-1" vertex="1">
          <mxGeometry x="2210" y="376" width="60" height="40" as="geometry" />
        </mxCell>
        <mxCell id="DnuqKbJlAa81eqGboaNl-228" style="edgeStyle=orthogonalEdgeStyle;rounded=0;orthogonalLoop=1;jettySize=auto;html=1;entryX=0;entryY=0.5;entryDx=0;entryDy=0;fillColor=none;" parent="WIyWlLk6GJQsqaUBKTNV-1" source="DnuqKbJlAa81eqGboaNl-145" target="DnuqKbJlAa81eqGboaNl-165" edge="1">
          <mxGeometry relative="1" as="geometry" />
        </mxCell>
        <mxCell id="DnuqKbJlAa81eqGboaNl-229" style="edgeStyle=orthogonalEdgeStyle;rounded=0;orthogonalLoop=1;jettySize=auto;html=1;entryX=0;entryY=0.5;entryDx=0;entryDy=0;fillColor=none;" parent="WIyWlLk6GJQsqaUBKTNV-1" source="DnuqKbJlAa81eqGboaNl-152" target="DnuqKbJlAa81eqGboaNl-164" edge="1">
          <mxGeometry relative="1" as="geometry">
            <Array as="points">
              <mxPoint x="2180" y="562" />
              <mxPoint x="2180" y="831" />
            </Array>
          </mxGeometry>
        </mxCell>
        <mxCell id="DnuqKbJlAa81eqGboaNl-230" value="&lt;span style=&quot;font-size:12.0pt;font-family:&amp;quot;Liberation Serif&amp;quot;,serif;&#xa;mso-fareast-font-family:NSimSun;mso-bidi-font-family:&amp;quot;Lucida Sans&amp;quot;;mso-ansi-language:&#xa;RU;mso-fareast-language:ZH-CN;mso-bidi-language:HI&quot;&gt;1..&lt;/span&gt;&lt;span lang=&quot;EN-US&quot; style=&quot;font-size:12.0pt;font-family:&amp;quot;Liberation Serif&amp;quot;,serif;mso-fareast-font-family:&#xa;NSimSun;mso-bidi-font-family:&amp;quot;Lucida Sans&amp;quot;;mso-ansi-language:EN-US;mso-fareast-language:&#xa;ZH-CN;mso-bidi-language:HI&quot;&gt;n&lt;/span&gt;" style="text;whiteSpace=wrap;html=1;fillColor=none;" parent="WIyWlLk6GJQsqaUBKTNV-1" vertex="1">
          <mxGeometry x="2200" y="791" width="60" height="40" as="geometry" />
        </mxCell>
        <mxCell id="DnuqKbJlAa81eqGboaNl-231" style="edgeStyle=orthogonalEdgeStyle;rounded=0;orthogonalLoop=1;jettySize=auto;html=1;entryX=0;entryY=0.5;entryDx=0;entryDy=0;fillColor=none;" parent="WIyWlLk6GJQsqaUBKTNV-1" source="DnuqKbJlAa81eqGboaNl-152" target="DnuqKbJlAa81eqGboaNl-177" edge="1">
          <mxGeometry relative="1" as="geometry">
            <Array as="points">
              <mxPoint x="2180" y="562" />
              <mxPoint x="2180" y="1443" />
            </Array>
          </mxGeometry>
        </mxCell>
        <mxCell id="DnuqKbJlAa81eqGboaNl-232" value="&lt;span style=&quot;font-size:12.0pt;font-family:&amp;quot;Liberation Serif&amp;quot;,serif;&#xa;mso-fareast-font-family:NSimSun;mso-bidi-font-family:&amp;quot;Lucida Sans&amp;quot;;mso-ansi-language:&#xa;RU;mso-fareast-language:ZH-CN;mso-bidi-language:HI&quot;&gt;1..&lt;/span&gt;&lt;span lang=&quot;EN-US&quot; style=&quot;font-size:12.0pt;font-family:&amp;quot;Liberation Serif&amp;quot;,serif;mso-fareast-font-family:&#xa;NSimSun;mso-bidi-font-family:&amp;quot;Lucida Sans&amp;quot;;mso-ansi-language:EN-US;mso-fareast-language:&#xa;ZH-CN;mso-bidi-language:HI&quot;&gt;n&lt;/span&gt;" style="text;whiteSpace=wrap;html=1;fillColor=none;" parent="WIyWlLk6GJQsqaUBKTNV-1" vertex="1">
          <mxGeometry x="2180" y="1446" width="60" height="40" as="geometry" />
        </mxCell>
        <mxCell id="DnuqKbJlAa81eqGboaNl-233" style="edgeStyle=orthogonalEdgeStyle;rounded=0;orthogonalLoop=1;jettySize=auto;html=1;entryX=0;entryY=0.5;entryDx=0;entryDy=0;fillColor=none;" parent="WIyWlLk6GJQsqaUBKTNV-1" source="DnuqKbJlAa81eqGboaNl-210" target="DnuqKbJlAa81eqGboaNl-212" edge="1">
          <mxGeometry relative="1" as="geometry">
            <Array as="points">
              <mxPoint x="2050" y="1509" />
              <mxPoint x="2050" y="1621" />
            </Array>
          </mxGeometry>
        </mxCell>
        <mxCell id="DnuqKbJlAa81eqGboaNl-234" value="&lt;span style=&quot;font-size:12.0pt;font-family:&amp;quot;Liberation Serif&amp;quot;,serif;&lt;br/&gt;mso-fareast-font-family:NSimSun;mso-bidi-font-family:&amp;quot;Lucida Sans&amp;quot;;mso-ansi-language:&lt;br/&gt;RU;mso-fareast-language:ZH-CN;mso-bidi-language:HI&quot;&gt;1&lt;/span&gt;" style="text;whiteSpace=wrap;html=1;fillColor=none;" parent="WIyWlLk6GJQsqaUBKTNV-1" vertex="1">
          <mxGeometry x="2040" y="1470" width="20" height="40" as="geometry" />
        </mxCell>
        <mxCell id="DnuqKbJlAa81eqGboaNl-240" style="edgeStyle=orthogonalEdgeStyle;rounded=0;orthogonalLoop=1;jettySize=auto;html=1;entryX=0;entryY=0.5;entryDx=0;entryDy=0;fillColor=none;" parent="WIyWlLk6GJQsqaUBKTNV-1" source="DnuqKbJlAa81eqGboaNl-217" target="DnuqKbJlAa81eqGboaNl-206" edge="1">
          <mxGeometry relative="1" as="geometry">
            <Array as="points">
              <mxPoint x="2070" y="1355" />
              <mxPoint x="2070" y="1531" />
            </Array>
          </mxGeometry>
        </mxCell>
        <mxCell id="DnuqKbJlAa81eqGboaNl-241" style="edgeStyle=orthogonalEdgeStyle;rounded=0;orthogonalLoop=1;jettySize=auto;html=1;entryX=0;entryY=0.5;entryDx=0;entryDy=0;fillColor=none;" parent="WIyWlLk6GJQsqaUBKTNV-1" source="DnuqKbJlAa81eqGboaNl-217" target="DnuqKbJlAa81eqGboaNl-207" edge="1">
          <mxGeometry relative="1" as="geometry">
            <Array as="points">
              <mxPoint x="2070" y="1355" />
              <mxPoint x="2070" y="1561" />
            </Array>
          </mxGeometry>
        </mxCell>
        <mxCell id="DnuqKbJlAa81eqGboaNl-242" value="&lt;span style=&quot;font-size:12.0pt;font-family:&amp;quot;Liberation Serif&amp;quot;,serif;&lt;br/&gt;mso-fareast-font-family:NSimSun;mso-bidi-font-family:&amp;quot;Lucida Sans&amp;quot;;mso-ansi-language:&lt;br/&gt;RU;mso-fareast-language:ZH-CN;mso-bidi-language:HI&quot;&gt;1&lt;/span&gt;" style="text;whiteSpace=wrap;html=1;fillColor=none;" parent="WIyWlLk6GJQsqaUBKTNV-1" vertex="1">
          <mxGeometry x="2040" y="1316" width="20" height="40" as="geometry" />
        </mxCell>
        <mxCell id="DnuqKbJlAa81eqGboaNl-243" value="&lt;span style=&quot;font-size:12.0pt;font-family:&amp;quot;Liberation Serif&amp;quot;,serif;&#xa;mso-fareast-font-family:NSimSun;mso-bidi-font-family:&amp;quot;Lucida Sans&amp;quot;;mso-ansi-language:&#xa;RU;mso-fareast-language:ZH-CN;mso-bidi-language:HI&quot;&gt;1..&lt;/span&gt;&lt;span lang=&quot;EN-US&quot; style=&quot;font-size:12.0pt;font-family:&amp;quot;Liberation Serif&amp;quot;,serif;mso-fareast-font-family:&#xa;NSimSun;mso-bidi-font-family:&amp;quot;Lucida Sans&amp;quot;;mso-ansi-language:EN-US;mso-fareast-language:&#xa;ZH-CN;mso-bidi-language:HI&quot;&gt;n&lt;/span&gt;" style="text;whiteSpace=wrap;html=1;fillColor=none;" parent="WIyWlLk6GJQsqaUBKTNV-1" vertex="1">
          <mxGeometry x="2180" y="1486" width="60" height="40" as="geometry" />
        </mxCell>
        <mxCell id="DnuqKbJlAa81eqGboaNl-244" value="d_order_status" style="swimlane;fontStyle=2;align=center;verticalAlign=top;childLayout=stackLayout;horizontal=1;startSize=26;horizontalStack=0;resizeParent=1;resizeLast=0;collapsible=1;marginBottom=0;rounded=0;shadow=0;strokeWidth=1;fillColor=none;" parent="WIyWlLk6GJQsqaUBKTNV-1" vertex="1">
          <mxGeometry x="2580" y="1400" width="160" height="80" as="geometry">
            <mxRectangle x="230" y="140" width="160" height="26" as="alternateBounds" />
          </mxGeometry>
        </mxCell>
        <mxCell id="DnuqKbJlAa81eqGboaNl-245" value="id" style="text;align=left;verticalAlign=top;spacingLeft=4;spacingRight=4;overflow=hidden;rotatable=0;points=[[0,0.5],[1,0.5]];portConstraint=eastwest;fillColor=none;" parent="DnuqKbJlAa81eqGboaNl-244" vertex="1">
          <mxGeometry y="26" width="160" height="26" as="geometry" />
        </mxCell>
        <mxCell id="DnuqKbJlAa81eqGboaNl-246" value="name" style="text;align=left;verticalAlign=top;spacingLeft=4;spacingRight=4;overflow=hidden;rotatable=0;points=[[0,0.5],[1,0.5]];portConstraint=eastwest;rounded=0;shadow=0;html=0;fillColor=none;" parent="DnuqKbJlAa81eqGboaNl-244" vertex="1">
          <mxGeometry y="52" width="160" height="26" as="geometry" />
        </mxCell>
        <mxCell id="DnuqKbJlAa81eqGboaNl-247" value="&lt;span style=&quot;font-size:12.0pt;font-family:&amp;quot;Liberation Serif&amp;quot;,serif;&lt;br/&gt;mso-fareast-font-family:NSimSun;mso-bidi-font-family:&amp;quot;Lucida Sans&amp;quot;;mso-ansi-language:&lt;br/&gt;RU;mso-fareast-language:ZH-CN;mso-bidi-language:HI&quot;&gt;1&lt;/span&gt;" style="text;whiteSpace=wrap;html=1;fillColor=none;" parent="WIyWlLk6GJQsqaUBKTNV-1" vertex="1">
          <mxGeometry x="2540" y="1400" width="20" height="40" as="geometry" />
        </mxCell>
        <mxCell id="DnuqKbJlAa81eqGboaNl-248" style="edgeStyle=orthogonalEdgeStyle;rounded=0;orthogonalLoop=1;jettySize=auto;html=1;entryX=1;entryY=0.5;entryDx=0;entryDy=0;fillColor=none;" parent="WIyWlLk6GJQsqaUBKTNV-1" source="DnuqKbJlAa81eqGboaNl-245" target="DnuqKbJlAa81eqGboaNl-178" edge="1">
          <mxGeometry relative="1" as="geometry" />
        </mxCell>
        <mxCell id="DnuqKbJlAa81eqGboaNl-249" style="edgeStyle=orthogonalEdgeStyle;rounded=0;orthogonalLoop=1;jettySize=auto;html=1;entryX=1;entryY=0.5;entryDx=0;entryDy=0;fillColor=none;" parent="WIyWlLk6GJQsqaUBKTNV-1" source="DnuqKbJlAa81eqGboaNl-130" target="DnuqKbJlAa81eqGboaNl-208" edge="1">
          <mxGeometry relative="1" as="geometry" />
        </mxCell>
        <mxCell id="DnuqKbJlAa81eqGboaNl-250" style="edgeStyle=orthogonalEdgeStyle;rounded=0;orthogonalLoop=1;jettySize=auto;html=1;entryX=0;entryY=0.5;entryDx=0;entryDy=0;fillColor=none;" parent="WIyWlLk6GJQsqaUBKTNV-1" source="DnuqKbJlAa81eqGboaNl-140" target="DnuqKbJlAa81eqGboaNl-221" edge="1">
          <mxGeometry relative="1" as="geometry">
            <Array as="points">
              <mxPoint x="2110" y="1028" />
              <mxPoint x="2110" y="1417" />
            </Array>
          </mxGeometry>
        </mxCell>
        <mxCell id="DnuqKbJlAa81eqGboaNl-251" value="&lt;span style=&quot;font-size:12.0pt;font-family:&amp;quot;Liberation Serif&amp;quot;,serif;&#xa;mso-fareast-font-family:NSimSun;mso-bidi-font-family:&amp;quot;Lucida Sans&amp;quot;;mso-ansi-language:&#xa;RU;mso-fareast-language:ZH-CN;mso-bidi-language:HI&quot;&gt;1..&lt;/span&gt;&lt;span lang=&quot;EN-US&quot; style=&quot;font-size:12.0pt;font-family:&amp;quot;Liberation Serif&amp;quot;,serif;mso-fareast-font-family:&#xa;NSimSun;mso-bidi-font-family:&amp;quot;Lucida Sans&amp;quot;;mso-ansi-language:EN-US;mso-fareast-language:&#xa;ZH-CN;mso-bidi-language:HI&quot;&gt;n&lt;/span&gt;" style="text;whiteSpace=wrap;html=1;fillColor=none;" parent="WIyWlLk6GJQsqaUBKTNV-1" vertex="1">
          <mxGeometry x="2190" y="1380" width="60" height="40" as="geometry" />
        </mxCell>
        <mxCell id="DnuqKbJlAa81eqGboaNl-252" value="&lt;span style=&quot;font-size:12.0pt;font-family:&amp;quot;Liberation Serif&amp;quot;,serif;&#xa;mso-fareast-font-family:NSimSun;mso-bidi-font-family:&amp;quot;Lucida Sans&amp;quot;;mso-ansi-language:&#xa;RU;mso-fareast-language:ZH-CN;mso-bidi-language:HI&quot;&gt;1..&lt;/span&gt;&lt;span lang=&quot;EN-US&quot; style=&quot;font-size:12.0pt;font-family:&amp;quot;Liberation Serif&amp;quot;,serif;mso-fareast-font-family:&#xa;NSimSun;mso-bidi-font-family:&amp;quot;Lucida Sans&amp;quot;;mso-ansi-language:EN-US;mso-fareast-language:&#xa;ZH-CN;mso-bidi-language:HI&quot;&gt;n&lt;/span&gt;" style="text;whiteSpace=wrap;html=1;fillColor=none;" parent="WIyWlLk6GJQsqaUBKTNV-1" vertex="1">
          <mxGeometry x="2420" y="1430" width="60" height="40" as="geometry" />
        </mxCell>
        <mxCell id="DnuqKbJlAa81eqGboaNl-253" value="&lt;span style=&quot;font-size:12.0pt;font-family:&amp;quot;Liberation Serif&amp;quot;,serif;&#xa;mso-fareast-font-family:NSimSun;mso-bidi-font-family:&amp;quot;Lucida Sans&amp;quot;;mso-ansi-language:&#xa;RU;mso-fareast-language:ZH-CN;mso-bidi-language:HI&quot;&gt;1..&lt;/span&gt;&lt;span lang=&quot;EN-US&quot; style=&quot;font-size:12.0pt;font-family:&amp;quot;Liberation Serif&amp;quot;,serif;mso-fareast-font-family:&#xa;NSimSun;mso-bidi-font-family:&amp;quot;Lucida Sans&amp;quot;;mso-ansi-language:EN-US;mso-fareast-language:&#xa;ZH-CN;mso-bidi-language:HI&quot;&gt;n&lt;/span&gt;" style="text;whiteSpace=wrap;html=1;fillColor=none;" parent="WIyWlLk6GJQsqaUBKTNV-1" vertex="1">
          <mxGeometry x="2420" y="1550" width="60" height="40" as="geometry" />
        </mxCell>
        <mxCell id="DnuqKbJlAa81eqGboaNl-254" style="edgeStyle=orthogonalEdgeStyle;rounded=0;orthogonalLoop=1;jettySize=auto;html=1;entryX=0;entryY=0.5;entryDx=0;entryDy=0;fillColor=none;" parent="WIyWlLk6GJQsqaUBKTNV-1" source="DnuqKbJlAa81eqGboaNl-145" target="DnuqKbJlAa81eqGboaNl-173" edge="1">
          <mxGeometry relative="1" as="geometry">
            <Array as="points">
              <mxPoint x="1850" y="741" />
              <mxPoint x="1850" y="1261" />
            </Array>
          </mxGeometry>
        </mxCell>
        <mxCell id="DnuqKbJlAa81eqGboaNl-255" style="edgeStyle=orthogonalEdgeStyle;rounded=0;orthogonalLoop=1;jettySize=auto;html=1;entryX=0;entryY=0.5;entryDx=0;entryDy=0;fillColor=none;" parent="WIyWlLk6GJQsqaUBKTNV-1" source="DnuqKbJlAa81eqGboaNl-145" target="DnuqKbJlAa81eqGboaNl-219" edge="1">
          <mxGeometry relative="1" as="geometry">
            <Array as="points">
              <mxPoint x="1850" y="741" />
              <mxPoint x="1850" y="1287" />
            </Array>
          </mxGeometry>
        </mxCell>
        <mxCell id="DnuqKbJlAa81eqGboaNl-256" value="&lt;span style=&quot;font-size:12.0pt;font-family:&amp;quot;Liberation Serif&amp;quot;,serif;&#xa;mso-fareast-font-family:NSimSun;mso-bidi-font-family:&amp;quot;Lucida Sans&amp;quot;;mso-ansi-language:&#xa;RU;mso-fareast-language:ZH-CN;mso-bidi-language:HI&quot;&gt;1..&lt;/span&gt;&lt;span lang=&quot;EN-US&quot; style=&quot;font-size:12.0pt;font-family:&amp;quot;Liberation Serif&amp;quot;,serif;mso-fareast-font-family:&#xa;NSimSun;mso-bidi-font-family:&amp;quot;Lucida Sans&amp;quot;;mso-ansi-language:EN-US;mso-fareast-language:&#xa;ZH-CN;mso-bidi-language:HI&quot;&gt;n&lt;/span&gt;" style="text;whiteSpace=wrap;html=1;fillColor=none;" parent="WIyWlLk6GJQsqaUBKTNV-1" vertex="1">
          <mxGeometry x="2200" y="1224" width="60" height="40" as="geometry" />
        </mxCell>
        <mxCell id="-JFV0slSvM1gxQrjLwDL-1" style="edgeStyle=orthogonalEdgeStyle;rounded=0;orthogonalLoop=1;jettySize=auto;html=1;entryX=1;entryY=0.5;entryDx=0;entryDy=0;fillColor=none;" parent="WIyWlLk6GJQsqaUBKTNV-1" source="8l_3pa4N25uh9N-MK_aW-72" target="-JFV0slSvM1gxQrjLwDL-0" edge="1">
          <mxGeometry relative="1" as="geometry" />
        </mxCell>
        <mxCell id="-JFV0slSvM1gxQrjLwDL-2" value="&lt;span style=&quot;font-size:12.0pt;font-family:&amp;quot;Liberation Serif&amp;quot;,serif;&#xa;mso-fareast-font-family:NSimSun;mso-bidi-font-family:&amp;quot;Lucida Sans&amp;quot;;mso-ansi-language:&#xa;RU;mso-fareast-language:ZH-CN;mso-bidi-language:HI&quot;&gt;1..&lt;/span&gt;&lt;span lang=&quot;EN-US&quot; style=&quot;font-size:12.0pt;font-family:&amp;quot;Liberation Serif&amp;quot;,serif;mso-fareast-font-family:&#xa;NSimSun;mso-bidi-font-family:&amp;quot;Lucida Sans&amp;quot;;mso-ansi-language:EN-US;mso-fareast-language:&#xa;ZH-CN;mso-bidi-language:HI&quot;&gt;n&lt;/span&gt;" style="text;whiteSpace=wrap;html=1;fillColor=none;" parent="WIyWlLk6GJQsqaUBKTNV-1" vertex="1">
          <mxGeometry x="311" y="580" width="60" height="40" as="geometry" />
        </mxCell>
        <mxCell id="-JFV0slSvM1gxQrjLwDL-7" style="edgeStyle=orthogonalEdgeStyle;rounded=0;orthogonalLoop=1;jettySize=auto;html=1;entryX=0.75;entryY=1;entryDx=0;entryDy=0;exitX=0;exitY=0.5;exitDx=0;exitDy=0;fillColor=none;" parent="WIyWlLk6GJQsqaUBKTNV-1" source="DnuqKbJlAa81eqGboaNl-196" target="-JFV0slSvM1gxQrjLwDL-8" edge="1">
          <mxGeometry relative="1" as="geometry">
            <Array as="points">
              <mxPoint x="100" y="602" />
              <mxPoint x="100" y="300" />
            </Array>
          </mxGeometry>
        </mxCell>
        <mxCell id="-JFV0slSvM1gxQrjLwDL-8" value="&lt;font face=&quot;Liberation Serif, serif&quot;&gt;&lt;span style=&quot;font-size: 16px;&quot;&gt;1&lt;/span&gt;&lt;/font&gt;" style="text;whiteSpace=wrap;html=1;fillColor=none;" parent="WIyWlLk6GJQsqaUBKTNV-1" vertex="1">
          <mxGeometry x="106" y="260" width="60" height="40" as="geometry" />
        </mxCell>
        <mxCell id="-JFV0slSvM1gxQrjLwDL-11" value="Создать вручную" style="text;html=1;align=center;verticalAlign=middle;whiteSpace=wrap;rounded=0;fillColor=none;" parent="WIyWlLk6GJQsqaUBKTNV-1" vertex="1">
          <mxGeometry x="90" y="780" width="60" height="30" as="geometry" />
        </mxCell>
        <mxCell id="-JFV0slSvM1gxQrjLwDL-12" value="&lt;font face=&quot;Liberation Serif, serif&quot;&gt;&lt;span style=&quot;font-size: 16px;&quot;&gt;1&lt;/span&gt;&lt;/font&gt;" style="text;whiteSpace=wrap;html=1;fillColor=none;" parent="WIyWlLk6GJQsqaUBKTNV-1" vertex="1">
          <mxGeometry x="106" y="610" width="60" height="40" as="geometry" />
        </mxCell>
        <mxCell id="wcXzBFnL8SX8BRq74klP-0" value="hub" style="rounded=0;whiteSpace=wrap;html=1;fillColor=#97D077;" parent="WIyWlLk6GJQsqaUBKTNV-1" vertex="1">
          <mxGeometry x="80" y="40" width="100" height="30" as="geometry" />
        </mxCell>
        <mxCell id="wcXzBFnL8SX8BRq74klP-1" value="sat" style="rounded=0;whiteSpace=wrap;html=1;fillColor=#FFFF99;" parent="WIyWlLk6GJQsqaUBKTNV-1" vertex="1">
          <mxGeometry x="80" y="80" width="100" height="30" as="geometry" />
        </mxCell>
        <mxCell id="wcXzBFnL8SX8BRq74klP-2" value="link" style="rounded=0;whiteSpace=wrap;html=1;fillColor=#99FFFF;" parent="WIyWlLk6GJQsqaUBKTNV-1" vertex="1">
          <mxGeometry x="80" y="120" width="100" height="30" as="geometry" />
        </mxCell>
        <mxCell id="OPc1n15RnhE3d0CwbMrE-0" value="45 Tables" style="shape=cylinder3;whiteSpace=wrap;html=1;boundedLbl=1;backgroundOutline=1;size=15;" parent="WIyWlLk6GJQsqaUBKTNV-1" vertex="1">
          <mxGeometry x="1110" y="104" width="91" height="134" as="geometry" />
        </mxCell>
        <mxCell id="OPc1n15RnhE3d0CwbMrE-2" value="Самый долгий&amp;nbsp;&lt;div&gt;процесс&lt;/div&gt;" style="ellipse;shape=cloud;whiteSpace=wrap;html=1;" parent="WIyWlLk6GJQsqaUBKTNV-1" vertex="1">
          <mxGeometry x="980" y="219" width="120" height="80" as="geometry" />
        </mxCell>
        <mxCell id="OPc1n15RnhE3d0CwbMrE-3" value="7 Dimensions&lt;div&gt;3 Facts&lt;/div&gt;" style="shape=cylinder3;whiteSpace=wrap;html=1;boundedLbl=1;backgroundOutline=1;size=15;" parent="WIyWlLk6GJQsqaUBKTNV-1" vertex="1">
          <mxGeometry x="1880" y="98" width="180" height="142" as="geometry" />
        </mxCell>
        <mxCell id="OPc1n15RnhE3d0CwbMrE-4" value="" style="shape=singleArrow;whiteSpace=wrap;html=1;" parent="WIyWlLk6GJQsqaUBKTNV-1" vertex="1">
          <mxGeometry x="1770" y="160" width="100" height="60" as="geometry" />
        </mxCell>
        <mxCell id="OPc1n15RnhE3d0CwbMrE-5" value="" style="endArrow=none;dashed=1;html=1;dashPattern=1 3;strokeWidth=2;rounded=0;" parent="WIyWlLk6GJQsqaUBKTNV-1" edge="1">
          <mxGeometry width="50" height="50" relative="1" as="geometry">
            <mxPoint x="2770" y="2370" as="sourcePoint" />
            <mxPoint x="2790" y="90" as="targetPoint" />
          </mxGeometry>
        </mxCell>
      </root>
    </mxGraphModel>
  </diagram>
</mxfile>
